<?xml version="1.0" encoding="utf-8"?>
<!-- Generator: Adobe Illustrator 24.1.0, SVG Export Plug-In . SVG Version: 6.00 Build 0)  -->
<svg version="1.1" id="Layer_1" xmlns="http://www.w3.org/2000/svg" xmlns:xlink="http://www.w3.org/1999/xlink" x="0px" y="0px"
	 viewBox="0 0 24 24" style="enable-background:new 0 0 24 24;" xml:space="preserve">
<style type="text/css">
	.st0{fill:none;}
	.st1{fill:#999999;}
	.st2{fill:#e69506;}
</style>
<path class="st0" d="M0,0h24v24H0V0z"/>
<g>
	<g>
		<circle class="st1" cx="10.5" cy="7" r="4"/>
		<path class="st1" d="M12.3,18.3h-1v-1v-1.8v-1h1H15v-0.6c-1.6-0.5-3.3-0.9-4.5-0.9c-2.7,0-8,1.3-8,4v2H15v-0.7H12.3z"/>
	</g>
	<polygon class="st2" points="17.9,21 17.9,17.3 21.5,17.3 21.5,15.5 17.9,15.5 17.9,11.9 16.1,11.9 16.1,15.5 12.3,15.5 12.3,17.3 
		16.1,17.3 16.1,21 	"/>
</g>
</svg>
