<?xml version="1.0" encoding="utf-8"?>
<!-- Generator: Adobe Illustrator 24.2.1, SVG Export Plug-In . SVG Version: 6.00 Build 0)  -->
<svg version="1.1" id="Layer_1" xmlns="http://www.w3.org/2000/svg" xmlns:xlink="http://www.w3.org/1999/xlink" x="0px" y="0px"
	 viewBox="0 0 69 69" style="enable-background:new 0 0 69 69;" xml:space="preserve">
<style type="text/css">
	.st0{fill:#E2E7ED;}
	.st1{fill:#99ABBE;}
</style>
<circle class="st0" cx="34.2" cy="34.2" r="34.2"/>
<path class="st1" d="M46,38.5c-1-1.1-2.6-1.2-3.7-0.3c-0.1,0.1-0.2,0.2-0.3,0.3c-0.9,0.9-1.9,1.8-2.8,2.8c-0.2,0.2-0.5,0.3-0.8,0.1
	l0,0c-0.6-0.3-1.2-0.6-1.8-1c-2.7-1.7-5-3.9-7-6.3c-1-1.2-1.9-2.6-2.5-4c-0.1-0.2-0.1-0.6,0.1-0.7c0.9-0.9,1.8-1.8,2.8-2.8
	c1.1-0.9,1.3-2.6,0.4-3.7c-0.1-0.1-0.2-0.3-0.4-0.4l-2.2-2.2c-0.8-0.8-1.5-1.5-2.3-2.3c-1-1.1-2.6-1.2-3.7-0.3
	c-0.1,0.1-0.2,0.2-0.3,0.3c-0.9,0.9-1.8,1.9-2.8,2.8c-0.9,0.8-1.4,1.9-1.4,3.1c-0.1,1.9,0.3,3.8,1,5.6c1.4,3.7,3.4,7.1,6,10.1
	c3.4,4.1,7.6,7.4,12.3,9.7c2.1,1.1,4.5,1.8,6.8,2c1.6,0.2,3.2-0.4,4.3-1.6c0.8-0.9,1.7-1.7,2.5-2.6c1.1-0.9,1.3-2.6,0.3-3.7
	c-0.1-0.1-0.2-0.2-0.3-0.3L46,38.5z"/>
<path class="st1" d="M48.8,19.3c0.1-0.2-0.2-0.5-0.4-0.4l-11.1,3c-0.2,0.1-0.3,0.4-0.1,0.5l2.9,2.9l-4.4,4.4c-0.7,0.7-0.7,1.7,0,2.4
	c0.7,0.7,1.7,0.7,2.4,0l4.4-4.4l2.9,2.9c0.2,0.2,0.5,0.1,0.5-0.1L48.8,19.3z"/>
</svg>
