<?xml version="1.0" encoding="utf-8"?>
<!-- Generator: Adobe Illustrator 24.2.1, SVG Export Plug-In . SVG Version: 6.00 Build 0)  -->
<svg version="1.1" id="Layer_1" xmlns="http://www.w3.org/2000/svg" xmlns:xlink="http://www.w3.org/1999/xlink" x="0px" y="0px"
	 viewBox="0 0 69 69" style="enable-background:new 0 0 69 69;" xml:space="preserve">
<style type="text/css">
	.st0{fill:#EE1D23;}
	.st1{fill:#FFFFFF;}
</style>
<circle class="st0" cx="34.2" cy="34.2" r="34.2"/>
<path class="st1" d="M39.7,33.9l7.1-7.1c0-0.2,0-0.4,0-0.6l-4.6-4.6c-0.2-0.2-0.4-0.2-0.6,0l-7.1,7.1c-0.2,0.2-0.4,0.2-0.6,0
	l-7.1-7.1c-0.2,0-0.4,0-0.6,0l-4.6,4.6c0,0.2,0,0.4,0,0.6l7.1,7.1c0.2,0.2,0.2,0.4,0,0.6l-7.1,7.1c-0.2,0.2-0.2,0.4,0,0.6l4.6,4.6
	c0.2,0,0.4,0,0.6,0l7.1-7.1c0.2-0.2,0.4-0.2,0.6,0l7.1,7.1c0.2,0.2,0.4,0.2,0.6,0l4.6-4.6c0.2-0.2,0.2-0.4,0-0.6l-7.1-7.1
	C39.6,34.3,39.6,34.1,39.7,33.9z"/>
</svg>
