<?xml version="1.0" encoding="utf-8"?>
<!-- Generator: Adobe Illustrator 24.1.0, SVG Export Plug-In . SVG Version: 6.00 Build 0)  -->
<svg version="1.1" id="Layer_1" xmlns="http://www.w3.org/2000/svg" xmlns:xlink="http://www.w3.org/1999/xlink" x="0px" y="0px"
	 viewBox="0 0 69 69" style="enable-background:new 0 0 68.4 68.4;" xml:space="preserve">
<style type="text/css">
	.st0{fill:#E2E7ED;}
	.st1{fill:#99ABBE;}
</style>
<g>
	<circle class="st0" cx="34.2" cy="34.2" r="34.2"/>
	<path class="st1" d="M47.4,33.3h-3.2c0,1.4-0.3,2.7-0.8,3.9l2.3,2.3C46.8,37.6,47.4,35.5,47.4,33.3z M39.8,33.6c0-0.1,0-0.2,0-0.3
		V21.9c0-3.1-2.5-5.7-5.7-5.7s-5.7,2.5-5.7,5.7v0.3L39.8,33.6z M19.6,18.1l-2.4,2.4l11.3,11.3v1.4c0,3.1,2.5,5.7,5.6,5.7
		c0.4,0,0.8-0.1,1.2-0.2l3.1,3.1c-1.3,0.6-2.8,1-4.4,1c-5.2,0-10-4-10-9.6H21c0,6.4,5.1,11.8,11.3,12.7v6.2h3.8v-6.2
		c1.7-0.2,3.3-0.8,4.8-1.7l7.9,7.9l2.4-2.4L19.6,18.1z"/>
</g>
</svg>
