<?xml version="1.0" encoding="UTF-8" standalone="no"?>
<svg
   xmlns:dc="http://purl.org/dc/elements/1.1/"
   xmlns:cc="http://creativecommons.org/ns#"
   xmlns:rdf="http://www.w3.org/1999/02/22-rdf-syntax-ns#"
   xmlns:svg="http://www.w3.org/2000/svg"
   xmlns="http://www.w3.org/2000/svg"
   xmlns:sodipodi="http://sodipodi.sourceforge.net/DTD/sodipodi-0.dtd"
   xmlns:inkscape="http://www.inkscape.org/namespaces/inkscape"
   version="1.1"
   id="Layer_1"
   x="0px"
   y="0px"
   viewBox="0 0 69 69"
   style="enable-background:new 0 0 68.4 68.4;"
   xml:space="preserve"
   sodipodi:docname="button-hold-on.svg"
   inkscape:version="1.0 (4035a4fb49, 2020-05-01)"><metadata
   id="metadata118"><rdf:RDF><cc:Work
       rdf:about=""><dc:format>image/svg+xml</dc:format><dc:type
         rdf:resource="http://purl.org/dc/dcmitype/StillImage" /><dc:title></dc:title></cc:Work></rdf:RDF></metadata><defs
   id="defs116" /><sodipodi:namedview
   inkscape:document-rotation="0"
   pagecolor="#ffffff"
   bordercolor="#666666"
   borderopacity="1"
   objecttolerance="10"
   gridtolerance="10"
   guidetolerance="10"
   inkscape:pageopacity="0"
   inkscape:pageshadow="2"
   inkscape:window-width="2450"
   inkscape:window-height="1336"
   id="namedview114"
   showgrid="false"
   inkscape:zoom="14.608696"
   inkscape:cx="21.322917"
   inkscape:cy="34.5"
   inkscape:window-x="0"
   inkscape:window-y="0"
   inkscape:window-maximized="0"
   inkscape:current-layer="Layer_1" />
<style
   type="text/css"
   id="style107">
	.st0{fill:#00A651;}
	.st1{fill:#FFFFFF;}
</style>
<circle
   class="st0"
   cx="34.2"
   cy="34.2"
   r="34.2"
   id="circle109"
   style="fill:#e2e7ed;fill-opacity:1" />
<path
   class="st1"
   d="M45.8,38.5c-1-1.1-2.6-1.2-3.7-0.3c-0.1,0.1-0.2,0.2-0.3,0.3c-0.9,0.9-1.9,1.8-2.8,2.8  c-0.2,0.2-0.5,0.3-0.8,0.1c0,0,0,0,0,0c-0.6-0.3-1.2-0.6-1.8-1c-2.7-1.7-5-3.9-7-6.3c-1-1.2-1.9-2.6-2.5-4c-0.1-0.2-0.1-0.6,0.1-0.7  c0.9-0.9,1.8-1.8,2.8-2.8c1.1-0.9,1.3-2.6,0.4-3.7c-0.1-0.1-0.2-0.3-0.4-0.4l-2.2-2.2c-0.8-0.8-1.5-1.5-2.3-2.3  c-1-1.1-2.6-1.2-3.7-0.3c-0.1,0.1-0.2,0.2-0.3,0.3c-0.9,0.9-1.8,1.9-2.8,2.8c-0.9,0.8-1.4,1.9-1.4,3.1c-0.1,1.9,0.3,3.8,1,5.6  c1.4,3.7,3.4,7.1,6,10.1c3.4,4.1,7.6,7.4,12.3,9.7c2.1,1.1,4.5,1.8,6.8,2c1.6,0.2,3.2-0.4,4.3-1.6c0.8-0.9,1.7-1.7,2.5-2.6  c1.1-0.9,1.3-2.6,0.3-3.7c-0.1-0.1-0.2-0.2-0.3-0.3L45.8,38.5z"
   id="path111"
   style="fill:#ee1d23;fill-opacity:1" />
<rect
   style="fill:#ee1d23;fill-opacity:1"
   id="rect1039"
   width="3.772155"
   height="13.202546"
   x="39.713291"
   y="17.148809" /><rect
   style="fill:#ee1d23;fill-opacity:1"
   id="rect1041"
   width="3.772155"
   height="13.202546"
   x="47.257607"
   y="17.148809" /></svg>
