<?xml version="1.0" encoding="utf-8"?>
<!-- Generator: Adobe Illustrator 24.2.1, SVG Export Plug-In . SVG Version: 6.00 Build 0)  -->
<svg version="1.1" id="Layer_1" xmlns="http://www.w3.org/2000/svg" xmlns:xlink="http://www.w3.org/1999/xlink" x="0px" y="0px"
	 viewBox="0 0 69 69" style="enable-background:new 0 0 69 69;" xml:space="preserve">
<style type="text/css">
	.st0{fill:#E2E7ED;}
	.st1{fill:#99ABBE;}
</style>
<circle class="st0" cx="34.2" cy="34.2" r="34.2"/>
<path class="st1" d="M46.2,48.8c-5.9-2.9-9.7-8.6-10-15.1c0-0.3,0-0.7,0-1c0,0,0-0.1,0-0.1v-4h4.9c0.3,0,0.5-0.3,0.3-0.6L34.5,16
	c-0.1-0.3-0.5-0.3-0.7,0L27,27.9c-0.1,0.3,0,0.6,0.3,0.6h4.9v4c0,0,0,0.1,0,0.1c0,0.3,0,0.7,0,1c-0.4,6.5-4.1,12.2-10,15.1
	c-1,0.5-1.4,1.7-0.9,2.7c0.5,1,1.7,1.4,2.7,0.9c4.6-2.3,8.2-6,10.3-10.4c2.1,4.5,5.6,8.2,10.3,10.4c0.3,0.1,0.6,0.2,0.9,0.2
	c0.7,0,1.5-0.4,1.8-1.1C47.6,50.5,47.2,49.3,46.2,48.8z"/>
</svg>
