<?xml version="1.0" encoding="utf-8"?>
<!-- Generator: Adobe Illustrator 24.1.0, SVG Export Plug-In . SVG Version: 6.00 Build 0)  -->
<svg version="1.1" id="Layer_1" xmlns="http://www.w3.org/2000/svg" xmlns:xlink="http://www.w3.org/1999/xlink" x="0px" y="0px"
	 viewBox="0 0 69 69" style="enable-background:new 0 0 68.4 68.4;" xml:space="preserve">
<style type="text/css">
	.st0{fill:#EE1D23;}
	.st1{fill:#FFFFFF;}
</style>
<g>
	<circle class="st0" cx="34.2" cy="34.2" r="34.2"/>
	<path class="st1" d="M23,41.3c1.5,0.1,2.7-1,2.8-2.4c0-0.1,0-0.3,0-0.4c0-1.3,0-2.6,0-3.9c-0.1-0.3,0.1-0.6,0.4-0.6c0,0,0,0,0,0
		c0.7-0.2,1.3-0.5,2-0.6c3.1-0.7,6.3-0.8,9.4-0.4c1.6,0.1,3.1,0.5,4.6,1.1c0.3,0.1,0.5,0.3,0.4,0.6c0,1.3,0,2.6,0,3.9
		c-0.1,1.4,0.9,2.7,2.4,2.9c0.2,0,0.4,0,0.5,0l3.1,0c1.1,0,2.1,0,3.2,0c1.5,0.1,2.7-1,2.8-2.4c0-0.1,0-0.3,0-0.4c0-1.3,0-2.6,0-3.9
		c0-1.2-0.4-2.3-1.2-3.2c-1.3-1.4-2.9-2.5-4.7-3.2c-3.6-1.6-7.4-2.6-11.4-2.9c-5.3-0.5-10.5,0.2-15.5,1.9c-2.3,0.7-4.4,1.9-6.3,3.4
		c-1.3,1-2,2.6-1.9,4.2c0.1,1.2,0,2.4,0,3.6c-0.1,1.5,0.9,2.7,2.4,2.9c0.2,0,0.3,0,0.5,0L23,41.3z"/>
</g>
</svg>
