<?xml version="1.0" encoding="utf-8"?>
<!-- Generator: Adobe Illustrator 24.1.0, SVG Export Plug-In . SVG Version: 6.00 Build 0)  -->
<svg version="1.1" id="Layer_1" xmlns="http://www.w3.org/2000/svg" xmlns:xlink="http://www.w3.org/1999/xlink" x="0px" y="0px"
	 viewBox="0 0 24 24" fill="#e69506" style="enable-background:new 0 0 24 24;" xml:space="preserve">
<style type="text/css">
	.st0{fill:none;}
</style>
<path class="st0" d="M0,0h24v24H0V0z"/>
<path d="M4.8,2.5c-1.3,0-2.4,1.1-2.4,2.4s1.1,2.4,2.4,2.4s2.4-1.1,2.4-2.4S6.2,2.5,4.8,2.5z M4.8,9.6c-1.3,0-2.4,1.1-2.4,2.4
	s1.1,2.4,2.4,2.4s2.4-1.1,2.4-2.4S6.2,9.6,4.8,9.6z M4.8,16.8c-1.3,0-2.4,1.1-2.4,2.4c0,1.3,1.1,2.4,2.4,2.4s2.4-1.1,2.4-2.4
	C7.2,17.8,6.2,16.8,4.8,16.8z M19.2,7.2c1.3,0,2.4-1.1,2.4-2.4s-1.1-2.4-2.4-2.4c-1.3,0-2.4,1.1-2.4,2.4S17.8,7.2,19.2,7.2z
	 M12,16.8c-1.3,0-2.4,1.1-2.4,2.4c0,1.3,1.1,2.4,2.4,2.4s2.4-1.1,2.4-2.4C14.4,17.8,13.3,16.8,12,16.8z M19.2,16.8
	c-1.3,0-2.4,1.1-2.4,2.4c0,1.3,1.1,2.4,2.4,2.4c1.3,0,2.4-1.1,2.4-2.4C21.5,17.8,20.5,16.8,19.2,16.8z M19.2,9.6
	c-1.3,0-2.4,1.1-2.4,2.4s1.1,2.4,2.4,2.4c1.3,0,2.4-1.1,2.4-2.4S20.5,9.6,19.2,9.6z M12,9.6c-1.3,0-2.4,1.1-2.4,2.4s1.1,2.4,2.4,2.4
	s2.4-1.1,2.4-2.4S13.3,9.6,12,9.6z M12,2.5c-1.3,0-2.4,1.1-2.4,2.4s1.1,2.4,2.4,2.4s2.4-1.1,2.4-2.4S13.3,2.5,12,2.5z"/>
</svg>
