<svg id="Layer_1" data-name="Layer 1" xmlns="http://www.w3.org/2000/svg" viewBox="0 0 219.33 27.73"><defs><style>.cls-1{fill:#ed9322;}.cls-1,.cls-3,.cls-5{fill-rule:evenodd;}.cls-2,.cls-3{fill:#37567a;}.cls-4,.cls-5{fill:#ee9421;}</style></defs><title>GCF-logo-color</title><path class="cls-1" d="M67.44,163.94a1.89,1.89,0,0,0,.6-.31,1.37,1.37,0,0,0,.52-1.12,1.64,1.64,0,0,0-.07-.46,1.48,1.48,0,0,0-.23-.38,2.36,2.36,0,0,0-.41-.33,5.58,5.58,0,0,0-.6-.3,4.19,4.19,0,0,1-.58-.26,1.51,1.51,0,0,1-.35-.25.53.53,0,0,1-.17-.25.87.87,0,0,1-.05-.28.59.59,0,0,1,.05-.27.45.45,0,0,1,.14-.19.72.72,0,0,1,.21-.12.71.71,0,0,1,.26,0,.51.51,0,0,1,.32.1.92.92,0,0,1,.23.25,1.24,1.24,0,0,1,.12.32,1.35,1.35,0,0,1,0,.33,1.15,1.15,0,0,0,.39,0,.8.8,0,0,0,.28-.13.73.73,0,0,0,.17-.18.64.64,0,0,0,0-.24.63.63,0,0,0-.09-.33.84.84,0,0,0-.27-.26,1.84,1.84,0,0,0-.46-.18,3.13,3.13,0,0,0-.67-.07,2.17,2.17,0,0,0-.69.1,1.92,1.92,0,0,0-.55.29,1.39,1.39,0,0,0-.36.44,1.28,1.28,0,0,0-.13.59,1.45,1.45,0,0,0,.07.47,1,1,0,0,0,.21.4,1.74,1.74,0,0,0,.4.34,4.34,4.34,0,0,0,.61.3l.51.23a1.49,1.49,0,0,1,.36.23.68.68,0,0,1,.28.57.68.68,0,0,1-.06.29.55.55,0,0,1-.17.23.72.72,0,0,1-.27.16,1,1,0,0,1-.35,0,1,1,0,0,1-.38-.08.92.92,0,0,1-.29-.23,1.09,1.09,0,0,1-.19-.39,1.84,1.84,0,0,1-.07-.55,1,1,0,0,0-.3,0,.83.83,0,0,0-.27.12.89.89,0,0,0-.19.2.66.66,0,0,0-.06.32.94.94,0,0,0,.08.36.81.81,0,0,0,.27.32,1.62,1.62,0,0,0,.51.23,2.56,2.56,0,0,0,.79.09A2.51,2.51,0,0,0,67.44,163.94Z" transform="translate(-45.81 -137.18)"/><path class="cls-1" d="M73.29,164.06v-.39h-.24a.26.26,0,0,1-.15-.06.27.27,0,0,1-.09-.15.88.88,0,0,1,0-.26v-1.37a1.63,1.63,0,0,1,0-.38,1.33,1.33,0,0,1,.11-.32.67.67,0,0,1,.2-.21.52.52,0,0,1,.29-.08.48.48,0,0,1,.45.25,1.44,1.44,0,0,1,.13.69v2.29H75.6v-.39h-.23a.34.34,0,0,1-.15-.06.32.32,0,0,1-.09-.15.66.66,0,0,1,0-.26v-1.61A2.2,2.2,0,0,0,75,161a1,1,0,0,0-.24-.42,1,1,0,0,0-.37-.24,1.35,1.35,0,0,0-.5-.08l-.33,0a1.18,1.18,0,0,0-.31.08,1,1,0,0,0-.28.18,1,1,0,0,0-.23.32h-.07a.8.8,0,0,0-.38-.46,1.33,1.33,0,0,0-.63-.15l-.3,0a.66.66,0,0,0-.26.08.69.69,0,0,0-.24.18,1.11,1.11,0,0,0-.21.32h0l-.09-.61H69v.36h0l.21,0a.36.36,0,0,1,.17.07.31.31,0,0,1,.11.14.55.55,0,0,1,0,.24v2.13a.63.63,0,0,1,0,.26.36.36,0,0,1-.12.15.58.58,0,0,1-.17.06H69V164H71.2v-.39H71a.38.38,0,0,1-.17-.06.31.31,0,0,1-.11-.14.54.54,0,0,1,0-.23v-1.32a1.89,1.89,0,0,1,0-.41,1.2,1.2,0,0,1,.09-.35.66.66,0,0,1,.17-.23.43.43,0,0,1,.26-.09.56.56,0,0,1,.23.06.45.45,0,0,1,.15.18,1.1,1.1,0,0,1,.09.29c0,.12,0,.26,0,.4V164h1.59v0Z" transform="translate(-45.81 -137.18)"/><path class="cls-1" d="M78.19,160.72a.5.5,0,0,1,.15.17,1.76,1.76,0,0,1,.07.27c0,.11,0,.22,0,.34v.41l-.62,0a2.77,2.77,0,0,0-1.28.27.86.86,0,0,0-.42.79,1.16,1.16,0,0,0,.09.47.9.9,0,0,0,.63.53,1.78,1.78,0,0,0,.47.06,2.05,2.05,0,0,0,.37,0,.73.73,0,0,0,.29-.11,1.3,1.3,0,0,0,.23-.18l.24-.25h.07l.15.57H80v-.39h0a.62.62,0,0,1-.21,0,.22.22,0,0,1-.13-.08.35.35,0,0,1-.07-.15,1.66,1.66,0,0,1,0-.24v-1.78a1.32,1.32,0,0,0-.1-.55,1,1,0,0,0-.29-.37,1.29,1.29,0,0,0-.49-.2,3.39,3.39,0,0,0-.68-.07,3.86,3.86,0,0,0-.6,0,2,2,0,0,0-.49.14.81.81,0,0,0-.33.23.49.49,0,0,0-.12.34.38.38,0,0,0,.25.38,1.75,1.75,0,0,0,.73.11,1.51,1.51,0,0,1,0-.31.92.92,0,0,1,.09-.25.69.69,0,0,1,.17-.17.46.46,0,0,1,.25-.06A.49.49,0,0,1,78.19,160.72Zm-.92,2a.6.6,0,0,1,.14-.21.7.7,0,0,1,.26-.13,1.5,1.5,0,0,1,.4,0l.35,0v.45a1,1,0,0,1,0,.32,1,1,0,0,1-.15.24.7.7,0,0,1-.23.15.73.73,0,0,1-.3.06.4.4,0,0,1-.34-.13.59.59,0,0,1-.11-.38A.89.89,0,0,1,77.27,162.72Z" transform="translate(-45.81 -137.18)"/><path class="cls-1" d="M82.64,163.67h-.43a.34.34,0,0,1-.16-.06.31.31,0,0,1-.11-.14.55.55,0,0,1,0-.24v-1.38a1.81,1.81,0,0,1,0-.23,2.27,2.27,0,0,1,.06-.25,1.51,1.51,0,0,1,.11-.22.49.49,0,0,1,.16-.16.41.41,0,0,1,.23-.06.32.32,0,0,1,.3.16.48.48,0,0,1,0,.19,2.11,2.11,0,0,1,0,.26,1.12,1.12,0,0,0,.68-.18.61.61,0,0,0,.25-.52.52.52,0,0,0-.2-.43,1.1,1.1,0,0,0-.64-.15,1.56,1.56,0,0,0-.4.05.73.73,0,0,0-.28.17,1.09,1.09,0,0,0-.21.26,2.29,2.29,0,0,0-.16.38h0l-.15-.87H80.25v.39h0a.68.68,0,0,1,.21,0,.36.36,0,0,1,.17.07.3.3,0,0,1,.11.15.65.65,0,0,1,0,.26v2.07a.67.67,0,0,1,0,.27.31.31,0,0,1-.12.15.41.41,0,0,1-.17.07h-.25v.39h2.42Z" transform="translate(-45.81 -137.18)"/><path class="cls-1" d="M85.85,163.32a.71.71,0,0,1-.11-.46v-2.15h1v-.5h-1v-.9h-.6a1.52,1.52,0,0,1-.33.71,1.14,1.14,0,0,1-.3.21.8.8,0,0,1-.41.09v.38h.55v2.24a1.6,1.6,0,0,0,.07.52,1,1,0,0,0,.22.35.66.66,0,0,0,.34.18,1.65,1.65,0,0,0,.46.06h.36l.3,0a.77.77,0,0,0,.23-.06l.16-.06v-.47l-.25,0-.28,0A.49.49,0,0,1,85.85,163.32Z" transform="translate(-45.81 -137.18)"/><path class="cls-1" d="M90.9,159.37h.26a1.38,1.38,0,0,1,.38.06.57.57,0,0,1,.24.19.94.94,0,0,1,.14.32,2,2,0,0,1,0,.45,1.83,1.83,0,0,1-.06.51,1,1,0,0,1-.15.34.61.61,0,0,1-.28.19,1.31,1.31,0,0,1-.41.06H90.9Zm2.16.41a1.17,1.17,0,0,0-.35-.45,1.81,1.81,0,0,0-.59-.29,3.45,3.45,0,0,0-.84-.1H89.1v.39h.31a.39.39,0,0,1,.15,0,.24.24,0,0,1,.11.06.41.41,0,0,1,.08.13.71.71,0,0,1,0,.23v3.45a.81.81,0,0,1,0,.25.37.37,0,0,1-.08.14.24.24,0,0,1-.11.06H89.1v.39h2.65v-.39h-.6a.27.27,0,0,1-.12-.06.38.38,0,0,1-.09-.14.66.66,0,0,1,0-.26v-1.28h.23a3.28,3.28,0,0,0,1-.12,1.72,1.72,0,0,0,.63-.34,1.23,1.23,0,0,0,.35-.5,1.62,1.62,0,0,0,.11-.58A1.41,1.41,0,0,0,93.06,159.78Z" transform="translate(-45.81 -137.18)"/><path class="cls-1" d="M98,164.06v-.38h-.24a.3.3,0,0,1-.15-.06.32.32,0,0,1-.09-.15.93.93,0,0,1,0-.26v-1.63a2.2,2.2,0,0,0-.08-.61.93.93,0,0,0-.24-.41,1,1,0,0,0-.38-.25,1.31,1.31,0,0,0-.5-.08l-.32,0a.88.88,0,0,0-.29.07.83.83,0,0,0-.26.17,1.39,1.39,0,0,0-.23.32h-.06c0-.11,0-.23,0-.35s0-.2,0-.32,0-.23,0-.33v-1.29h-1.7v.39h.25a.49.49,0,0,1,.17.06.44.44,0,0,1,.13.14.52.52,0,0,1,0,.23v3.82a.6.6,0,0,1,0,.26.31.31,0,0,1-.12.15.41.41,0,0,1-.17.07h-.24V164h2.23v-.38h-.24a.29.29,0,0,1-.17-.06.31.31,0,0,1-.11-.14.49.49,0,0,1,0-.23v-1.33a1.8,1.8,0,0,1,0-.41,1.13,1.13,0,0,1,.1-.34.78.78,0,0,1,.19-.24.6.6,0,0,1,.31-.09.67.67,0,0,1,.27.06.52.52,0,0,1,.18.18.83.83,0,0,1,.1.29,2.5,2.5,0,0,1,0,.4V164H98Z" transform="translate(-45.81 -137.18)"/><path class="cls-1" d="M99.46,161.5a1.33,1.33,0,0,1,.14-.45.6.6,0,0,1,.25-.27.69.69,0,0,1,.36-.09.76.76,0,0,1,.38.09.73.73,0,0,1,.25.27,1.33,1.33,0,0,1,.13.45,3.93,3.93,0,0,1,0,.63,4.06,4.06,0,0,1,0,.64,1.57,1.57,0,0,1-.14.46.76.76,0,0,1-.25.28.6.6,0,0,1-.36.09.76.76,0,0,1-.38-.09.57.57,0,0,1-.25-.28,1.57,1.57,0,0,1-.14-.46,4,4,0,0,1,0-.64A5.57,5.57,0,0,1,99.46,161.5Zm2.54-.21a1.67,1.67,0,0,0-.38-.6,1.64,1.64,0,0,0-.6-.35,2.43,2.43,0,0,0-.79-.12,2,2,0,0,0-1.45.47,2,2,0,0,0-.49,1.44,2.41,2.41,0,0,0,.13.85,1.54,1.54,0,0,0,.38.6,1.49,1.49,0,0,0,.6.35,2.45,2.45,0,0,0,.8.12,1.71,1.71,0,0,0,1.93-1.93A2.16,2.16,0,0,0,102,161.29Z" transform="translate(-45.81 -137.18)"/><path class="cls-1" d="M106.92,164.06v-.39h-.24a.3.3,0,0,1-.15-.06.32.32,0,0,1-.09-.15.93.93,0,0,1,0-.26v-1.61a2.2,2.2,0,0,0-.08-.61,1,1,0,0,0-.24-.42,1,1,0,0,0-.38-.24,1.31,1.31,0,0,0-.5-.08l-.32,0a.89.89,0,0,0-.29.08.87.87,0,0,0-.26.18,1.39,1.39,0,0,0-.23.32h0l-.09-.61h-1.53v.39h0a.68.68,0,0,1,.21,0,.36.36,0,0,1,.17.07.31.31,0,0,1,.11.14.55.55,0,0,1,0,.24v2.11a.63.63,0,0,1-.05.26.36.36,0,0,1-.12.15.58.58,0,0,1-.17.06h-.24v.39h2.23v-.39h-.24a.38.38,0,0,1-.17-.06.31.31,0,0,1-.11-.14.54.54,0,0,1,0-.23v-1.32a1.89,1.89,0,0,1,0-.41,1.2,1.2,0,0,1,.1-.35.87.87,0,0,1,.19-.23.6.6,0,0,1,.31-.09.67.67,0,0,1,.27.06.52.52,0,0,1,.18.18.83.83,0,0,1,.1.29,2.5,2.5,0,0,1,0,.4v2.29h1.6Z" transform="translate(-45.81 -137.18)"/><path class="cls-1" d="M109.71,164a1.75,1.75,0,0,0,.44-.17.6.6,0,0,0,.25-.25.62.62,0,0,0,.09-.3.38.38,0,0,0-.18-.35.76.76,0,0,1-.15.23l-.22.19a1,1,0,0,1-.28.12,1.19,1.19,0,0,1-.33,0,.86.86,0,0,1-.38-.07.66.66,0,0,1-.29-.2.73.73,0,0,1-.18-.35,1.85,1.85,0,0,1-.07-.51h2.29V162a2.37,2.37,0,0,0-.12-.78,1.49,1.49,0,0,0-.33-.56,1.51,1.51,0,0,0-.52-.34,1.83,1.83,0,0,0-.68-.12,2.18,2.18,0,0,0-.75.13,1.25,1.25,0,0,0-.55.37,1.66,1.66,0,0,0-.35.61,2.77,2.77,0,0,0-.12.85,2.21,2.21,0,0,0,.12.8,1.48,1.48,0,0,0,.93,1,2.15,2.15,0,0,0,.79.13A2.2,2.2,0,0,0,109.71,164Zm-.44-3.23a.55.55,0,0,1,.17.24,1.83,1.83,0,0,1,.09.4,3.89,3.89,0,0,1,0,.51h-1.17a1.9,1.9,0,0,1,.18-.92.51.51,0,0,1,.45-.31A.41.41,0,0,1,109.27,160.77Z" transform="translate(-45.81 -137.18)"/><path class="cls-1" d="M117.93,164.06v-4.27a.9.9,0,0,1,0-.25.22.22,0,0,1,.08-.14.23.23,0,0,1,.12-.06l.14,0h.31v-.39h-1.89v.39h.3a.34.34,0,0,1,.14,0,.23.23,0,0,1,.12.06.41.41,0,0,1,.08.13.71.71,0,0,1,0,.23v2.74L115,158.94h-1.61v.39h.31a.36.36,0,0,1,.14,0l.12.06a.41.41,0,0,1,.08.13.71.71,0,0,1,0,.23v3.45a.81.81,0,0,1,0,.25.37.37,0,0,1-.08.14.24.24,0,0,1-.11.06h-.46v.39h1.9v-.39h-.47a.23.23,0,0,1-.12-.06.37.37,0,0,1-.08-.14.78.78,0,0,1,0-.24v-3.09l2.63,3.93Z" transform="translate(-45.81 -137.18)"/><path class="cls-1" d="M123.17,164.06v-.39h-.26a.33.33,0,0,1-.15,0,.32.32,0,0,1-.1-.14.61.61,0,0,1,0-.25v-3H121v.39h.22a.49.49,0,0,1,.17.06.24.24,0,0,1,.11.13.54.54,0,0,1,0,.24v1.34a2,2,0,0,1,0,.44,1,1,0,0,1-.12.33.48.48,0,0,1-.2.2.52.52,0,0,1-.3.08.45.45,0,0,1-.27-.07.55.55,0,0,1-.17-.2,1.14,1.14,0,0,1-.09-.31,2.54,2.54,0,0,1,0-.41v-2.24H118.7v.39h0a.82.82,0,0,1,.23,0,.24.24,0,0,1,.15.08.38.38,0,0,1,.09.15.9.9,0,0,1,0,.25v1.57a1.57,1.57,0,0,0,.3,1.05,1.1,1.1,0,0,0,.87.34l.33,0a1,1,0,0,0,.3-.08,1.1,1.1,0,0,0,.28-.18,1.67,1.67,0,0,0,.24-.31h0l.16.59Z" transform="translate(-45.81 -137.18)"/><path class="cls-1" d="M127.65,164.06v-.39h-.24a.26.26,0,0,1-.15-.06.27.27,0,0,1-.09-.15.88.88,0,0,1,0-.26v-1.37a1.63,1.63,0,0,1,0-.38,1.33,1.33,0,0,1,.11-.32.67.67,0,0,1,.2-.21.52.52,0,0,1,.29-.08.48.48,0,0,1,.45.25,1.44,1.44,0,0,1,.13.69v2.29H130v-.39h-.23a.34.34,0,0,1-.15-.06.32.32,0,0,1-.09-.15.66.66,0,0,1,0-.26v-1.61a2.2,2.2,0,0,0-.08-.61,1,1,0,0,0-.24-.42,1,1,0,0,0-.37-.24,1.35,1.35,0,0,0-.5-.08l-.33,0a1.18,1.18,0,0,0-.31.08,1,1,0,0,0-.28.18,1,1,0,0,0-.23.32h-.07a.8.8,0,0,0-.38-.46,1.33,1.33,0,0,0-.63-.15l-.3,0a.66.66,0,0,0-.26.08.69.69,0,0,0-.24.18,1.11,1.11,0,0,0-.21.32h0l-.09-.61h-1.53v.36h0l.21,0a.36.36,0,0,1,.17.07.31.31,0,0,1,.11.14.55.55,0,0,1,0,.24v2.13a.63.63,0,0,1-.05.26.36.36,0,0,1-.12.15.58.58,0,0,1-.17.06h-.24V164h2.23v-.39h-.24a.38.38,0,0,1-.17-.06.31.31,0,0,1-.11-.14.54.54,0,0,1,0-.23v-1.32a1.89,1.89,0,0,1,0-.41,1.2,1.2,0,0,1,.09-.35.66.66,0,0,1,.17-.23.43.43,0,0,1,.26-.09.56.56,0,0,1,.23.06.45.45,0,0,1,.15.18,1.1,1.1,0,0,1,.09.29c0,.12,0,.26,0,.4V164h1.57Z" transform="translate(-45.81 -137.18)"/><path class="cls-1" d="M133.69,161.09a2.86,2.86,0,0,1,0,2,.61.61,0,0,1-.58.36.8.8,0,0,1-.41-.09.64.64,0,0,1-.27-.27,1.27,1.27,0,0,1-.13-.44,5.14,5.14,0,0,1,0-.59,3.74,3.74,0,0,1,0-.61,1.56,1.56,0,0,1,.13-.43.65.65,0,0,1,.26-.26,1,1,0,0,1,.41-.09A.7.7,0,0,1,133.69,161.09Zm1.2.18a1.56,1.56,0,0,0-.3-.59,1.37,1.37,0,0,0-.5-.35,1.78,1.78,0,0,0-.67-.12,1.44,1.44,0,0,0-.73.16,1.3,1.3,0,0,0-.45.42h-.05c0-.12,0-.23,0-.35s0-.2,0-.31,0-.2,0-.29V158.5h-1.7v.39h0a.78.78,0,0,1,.22,0,.36.36,0,0,1,.18.07.47.47,0,0,1,.13.15.58.58,0,0,1,.05.25v3.78a.6.6,0,0,1-.05.26.28.28,0,0,1-.13.15.36.36,0,0,1-.18.07h-.25V164h1.38l.2-.64h.07a1.15,1.15,0,0,0,.19.26.86.86,0,0,0,.26.2,1.08,1.08,0,0,0,.33.13,1.7,1.7,0,0,0,.41,0,1.67,1.67,0,0,0,.69-.12,1,1,0,0,0,.5-.35,1.7,1.7,0,0,0,.31-.6,3.12,3.12,0,0,0,.11-.87A2.66,2.66,0,0,0,134.89,161.27Z" transform="translate(-45.81 -137.18)"/><path class="cls-1" d="M137.88,164a1.75,1.75,0,0,0,.44-.17.6.6,0,0,0,.25-.25.62.62,0,0,0,.09-.3.38.38,0,0,0-.18-.35.76.76,0,0,1-.15.23l-.22.19a1,1,0,0,1-.28.12,1.19,1.19,0,0,1-.33,0,.86.86,0,0,1-.38-.07.66.66,0,0,1-.29-.2.73.73,0,0,1-.18-.35,1.85,1.85,0,0,1-.07-.51h2.29V162a2.37,2.37,0,0,0-.12-.78,1.49,1.49,0,0,0-.33-.56,1.51,1.51,0,0,0-.52-.34,1.83,1.83,0,0,0-.68-.12,2.18,2.18,0,0,0-.75.13,1.25,1.25,0,0,0-.55.37,1.66,1.66,0,0,0-.35.61,2.77,2.77,0,0,0-.12.85,2.21,2.21,0,0,0,.12.8,1.48,1.48,0,0,0,.93,1,2.15,2.15,0,0,0,.79.13A2.24,2.24,0,0,0,137.88,164Zm-.44-3.23a.55.55,0,0,1,.17.24,1.83,1.83,0,0,1,.09.4,4,4,0,0,1,0,.51h-1.17a1.9,1.9,0,0,1,.18-.92.51.51,0,0,1,.45-.31A.44.44,0,0,1,137.44,160.77Z" transform="translate(-45.81 -137.18)"/><path class="cls-1" d="M142,163.67h-.43a.34.34,0,0,1-.16-.06.31.31,0,0,1-.11-.14.55.55,0,0,1,0-.24v-1.38a1.81,1.81,0,0,1,0-.23,2.27,2.27,0,0,1,.06-.25,1.51,1.51,0,0,1,.11-.22.49.49,0,0,1,.16-.16.41.41,0,0,1,.23-.06.32.32,0,0,1,.3.16.48.48,0,0,1,0,.19,2.11,2.11,0,0,1,0,.26,1.12,1.12,0,0,0,.68-.18.61.61,0,0,0,.25-.52.52.52,0,0,0-.2-.43,1.1,1.1,0,0,0-.64-.15,1.56,1.56,0,0,0-.4.05.73.73,0,0,0-.28.17,1.09,1.09,0,0,0-.21.26,2.29,2.29,0,0,0-.16.38h0l-.15-.87h-1.47v.39h0a.68.68,0,0,1,.21,0,.36.36,0,0,1,.17.07.3.3,0,0,1,.11.15.65.65,0,0,1,0,.26v2.07a.67.67,0,0,1,0,.27.31.31,0,0,1-.12.15.41.41,0,0,1-.17.07h-.25v.39H142v-.42Z" transform="translate(-45.81 -137.18)"/><path class="cls-1" d="M145.6,164a1.23,1.23,0,0,0,.5-.24,1.07,1.07,0,0,0,.31-.39,1.21,1.21,0,0,0,.11-.52.76.76,0,0,0-.09-.38,1.33,1.33,0,0,0-.23-.3,1.41,1.41,0,0,0-.35-.23,2.89,2.89,0,0,0-.44-.18l-.5-.18a1.8,1.8,0,0,1-.31-.15.5.5,0,0,1-.16-.17.4.4,0,0,1,0-.2.25.25,0,0,1,0-.17.37.37,0,0,1,.13-.12.68.68,0,0,1,.19-.08,1.6,1.6,0,0,1,.23,0,.59.59,0,0,1,.49.2.85.85,0,0,1,.17.56,1,1,0,0,0,.57-.13.4.4,0,0,0,.17-.37.59.59,0,0,0-.07-.25.64.64,0,0,0-.22-.21,1.34,1.34,0,0,0-.4-.15,2.46,2.46,0,0,0-.58-.06,3.24,3.24,0,0,0-.65.07,1.57,1.57,0,0,0-.49.21.83.83,0,0,0-.32.35,1,1,0,0,0-.12.49,1,1,0,0,0,.08.41.76.76,0,0,0,.23.31,1.64,1.64,0,0,0,.39.25,4,4,0,0,0,.53.2l.43.16.28.15a.47.47,0,0,1,.15.17.45.45,0,0,1,0,.2.53.53,0,0,1,0,.17.47.47,0,0,1-.36.24,1.12,1.12,0,0,1-.33,0,.66.66,0,0,1-.32-.07.7.7,0,0,1-.26-.19,1.13,1.13,0,0,1-.16-.31,1.27,1.27,0,0,1-.06-.41.9.9,0,0,0-.22,0,.59.59,0,0,0-.4.25.62.62,0,0,0-.07.29.81.81,0,0,0,.08.34.65.65,0,0,0,.25.27,1.3,1.3,0,0,0,.46.18,3.07,3.07,0,0,0,1.35,0Z" transform="translate(-45.81 -137.18)"/><path class="cls-1" d="M151.46,164.06v-.39H151a.58.58,0,0,1-.17-.06.41.41,0,0,1-.18-.39v-2.49h.92v-.5h-.92v-.4c0-.16,0-.3,0-.41a.93.93,0,0,1,0-.27.32.32,0,0,1,.09-.15.17.17,0,0,1,.13-.05.2.2,0,0,1,.14.06.54.54,0,0,1,.09.15.65.65,0,0,1,0,.2,1.34,1.34,0,0,1,0,.19,1.36,1.36,0,0,0,.67-.12.36.36,0,0,0,.22-.36c0-.07-.07-.14-.19-.2s-.19-.12-.19-.17-.07-.09-.22-.12a2.88,2.88,0,0,0-.55,0,1.7,1.7,0,0,0-.63.1,1.15,1.15,0,0,0-.44.28,1,1,0,0,0-.26.45,1.92,1.92,0,0,0-.08.61v.27h-.65v.5h.65v2.49a.55.55,0,0,1-.05.25.38.38,0,0,1-.14.14.49.49,0,0,1-.17.06h-.32v.39h2.64v0Z" transform="translate(-45.81 -137.18)"/><path class="cls-1" d="M152.8,161.5a1.33,1.33,0,0,1,.14-.45.6.6,0,0,1,.25-.27.69.69,0,0,1,.36-.09.76.76,0,0,1,.38.09.73.73,0,0,1,.25.27,1.33,1.33,0,0,1,.13.45,3.93,3.93,0,0,1,.05.63,4.06,4.06,0,0,1,0,.64,1.57,1.57,0,0,1-.14.46.76.76,0,0,1-.25.28.6.6,0,0,1-.36.09.76.76,0,0,1-.38-.09.57.57,0,0,1-.25-.28,1.57,1.57,0,0,1-.14-.46,4,4,0,0,1,0-.64A5.57,5.57,0,0,1,152.8,161.5Zm2.55-.21a1.67,1.67,0,0,0-.38-.6,1.64,1.64,0,0,0-.6-.35,2.43,2.43,0,0,0-.79-.12,2,2,0,0,0-1.45.47,2,2,0,0,0-.49,1.44,2.41,2.41,0,0,0,.13.85,1.54,1.54,0,0,0,.38.6,1.49,1.49,0,0,0,.6.35,2.45,2.45,0,0,0,.8.12,1.71,1.71,0,0,0,1.93-1.93A2.63,2.63,0,0,0,155.35,161.29Z" transform="translate(-45.81 -137.18)"/><path class="cls-1" d="M158.17,163.67h-.43a.34.34,0,0,1-.16-.06.31.31,0,0,1-.11-.14.55.55,0,0,1,0-.24v-1.38a1.81,1.81,0,0,1,0-.23,2.27,2.27,0,0,1,.06-.25,1.51,1.51,0,0,1,.11-.22.49.49,0,0,1,.16-.16.41.41,0,0,1,.23-.06.32.32,0,0,1,.3.16.48.48,0,0,1,.05.19,2.11,2.11,0,0,1,0,.26,1.12,1.12,0,0,0,.68-.18.61.61,0,0,0,.25-.52.52.52,0,0,0-.2-.43,1.1,1.1,0,0,0-.64-.15,1.56,1.56,0,0,0-.4.05.73.73,0,0,0-.28.17,1.09,1.09,0,0,0-.21.26,2.29,2.29,0,0,0-.16.38h0l-.15-.87h-1.47v.39h0a.68.68,0,0,1,.21,0,.36.36,0,0,1,.17.07.3.3,0,0,1,.11.15.65.65,0,0,1,0,.26v2.07a.67.67,0,0,1,0,.27.31.31,0,0,1-.12.15.41.41,0,0,1-.17.07h-.25v.39h2.42v-.42Z" transform="translate(-45.81 -137.18)"/><path class="cls-1" d="M164.31,163.94a1.89,1.89,0,0,0,.6-.31,1.37,1.37,0,0,0,.52-1.12,1.64,1.64,0,0,0-.07-.46,1.48,1.48,0,0,0-.23-.38,2.36,2.36,0,0,0-.41-.33,5.58,5.58,0,0,0-.6-.3,4.19,4.19,0,0,1-.58-.26,1.51,1.51,0,0,1-.35-.25.53.53,0,0,1-.17-.25A.87.87,0,0,1,163,160a.59.59,0,0,1,.05-.27.45.45,0,0,1,.14-.19.72.72,0,0,1,.21-.12.71.71,0,0,1,.26,0,.51.51,0,0,1,.32.1.92.92,0,0,1,.23.25,1.24,1.24,0,0,1,.12.32,1.35,1.35,0,0,1,0,.33,1.15,1.15,0,0,0,.39,0,.8.8,0,0,0,.28-.13.73.73,0,0,0,.17-.18.64.64,0,0,0,0-.24.63.63,0,0,0-.09-.33.84.84,0,0,0-.27-.26,1.84,1.84,0,0,0-.46-.18,3.13,3.13,0,0,0-.67-.07,2.17,2.17,0,0,0-.69.1,1.92,1.92,0,0,0-.55.29,1.39,1.39,0,0,0-.36.44,1.28,1.28,0,0,0-.13.59,1.45,1.45,0,0,0,.07.47,1,1,0,0,0,.21.4,1.74,1.74,0,0,0,.4.34,4.34,4.34,0,0,0,.61.3l.51.23a1.49,1.49,0,0,1,.36.23.8.8,0,0,1,.21.25.66.66,0,0,1,.07.32.68.68,0,0,1-.06.29.55.55,0,0,1-.17.23.72.72,0,0,1-.27.16,1,1,0,0,1-.35,0,1,1,0,0,1-.38-.08.92.92,0,0,1-.29-.23,1.09,1.09,0,0,1-.19-.39,1.84,1.84,0,0,1-.07-.55,1,1,0,0,0-.3,0,.83.83,0,0,0-.27.12.89.89,0,0,0-.19.2.66.66,0,0,0-.06.32.94.94,0,0,0,.08.36.81.81,0,0,0,.27.32,1.62,1.62,0,0,0,.51.23,3.11,3.11,0,0,0,1.6,0Z" transform="translate(-45.81 -137.18)"/><path class="cls-1" d="M170.16,164.06v-.39h-.24a.26.26,0,0,1-.15-.06.27.27,0,0,1-.09-.15.88.88,0,0,1,0-.26v-1.37a1.63,1.63,0,0,1,0-.38,1.33,1.33,0,0,1,.11-.32.67.67,0,0,1,.2-.21.52.52,0,0,1,.29-.08.48.48,0,0,1,.45.25,1.44,1.44,0,0,1,.13.69v2.29h1.61v-.39h-.23a.34.34,0,0,1-.15-.06.32.32,0,0,1-.09-.15.66.66,0,0,1,0-.26v-1.61a2.2,2.2,0,0,0-.08-.61,1,1,0,0,0-.24-.42,1,1,0,0,0-.37-.24,1.35,1.35,0,0,0-.5-.08l-.33,0a1.09,1.09,0,0,0-.31.08,1,1,0,0,0-.28.18,1,1,0,0,0-.23.32h-.07a.8.8,0,0,0-.38-.46,1.33,1.33,0,0,0-.63-.15l-.3,0a.72.72,0,0,0-.26.08.69.69,0,0,0-.24.18,1.11,1.11,0,0,0-.21.32h0l-.09-.61h-1.53v.36h0l.21,0a.36.36,0,0,1,.17.07.31.31,0,0,1,.11.14.55.55,0,0,1,0,.24v2.13a.63.63,0,0,1-.05.26.36.36,0,0,1-.12.15.58.58,0,0,1-.17.06h-.24V164h2.23v-.39h-.24a.38.38,0,0,1-.17-.06.31.31,0,0,1-.11-.14.54.54,0,0,1,0-.23v-1.32a1.89,1.89,0,0,1,0-.41,1.2,1.2,0,0,1,.09-.35.66.66,0,0,1,.17-.23.43.43,0,0,1,.26-.09.56.56,0,0,1,.23.06.45.45,0,0,1,.15.18,1.1,1.1,0,0,1,.09.29c0,.12,0,.26,0,.4V164h1.57v0Z" transform="translate(-45.81 -137.18)"/><path class="cls-1" d="M175.06,160.72a.5.5,0,0,1,.15.17,1.76,1.76,0,0,1,.07.27c0,.11,0,.22,0,.34v.41l-.62,0a2.77,2.77,0,0,0-1.28.27.86.86,0,0,0-.42.79,1.16,1.16,0,0,0,.09.47.9.9,0,0,0,.63.53,1.78,1.78,0,0,0,.47.06,2.05,2.05,0,0,0,.37,0,.73.73,0,0,0,.29-.11,1.3,1.3,0,0,0,.23-.18l.24-.25h.07l.15.57h1.34v-.39h0a.62.62,0,0,1-.21,0,.22.22,0,0,1-.13-.08.35.35,0,0,1-.07-.15,1.66,1.66,0,0,1,0-.24v-1.78a1.32,1.32,0,0,0-.1-.55,1,1,0,0,0-.29-.37,1.29,1.29,0,0,0-.49-.2,3.39,3.39,0,0,0-.68-.07,3.86,3.86,0,0,0-.6,0,2,2,0,0,0-.49.14.81.81,0,0,0-.33.23.49.49,0,0,0-.12.34.38.38,0,0,0,.25.38,1.75,1.75,0,0,0,.73.11,1.51,1.51,0,0,1,0-.31.92.92,0,0,1,.09-.25.69.69,0,0,1,.17-.17.46.46,0,0,1,.25-.06A.61.61,0,0,1,175.06,160.72Zm-.92,2a.6.6,0,0,1,.14-.21.7.7,0,0,1,.26-.13,1.5,1.5,0,0,1,.4,0l.35,0v.45a1,1,0,0,1,0,.32,1,1,0,0,1-.15.24.7.7,0,0,1-.23.15.73.73,0,0,1-.3.06.4.4,0,0,1-.34-.13.59.59,0,0,1-.11-.38A.69.69,0,0,1,174.14,162.72Z" transform="translate(-45.81 -137.18)"/><path class="cls-1" d="M179.51,163.67h-.43a.34.34,0,0,1-.16-.06.31.31,0,0,1-.11-.14.55.55,0,0,1,0-.24v-1.38a1.81,1.81,0,0,1,0-.23,2.27,2.27,0,0,1,.06-.25,1.51,1.51,0,0,1,.11-.22.49.49,0,0,1,.16-.16.41.41,0,0,1,.23-.06.32.32,0,0,1,.3.16.48.48,0,0,1,.05.19,2.11,2.11,0,0,1,0,.26,1.12,1.12,0,0,0,.68-.18.61.61,0,0,0,.25-.52.52.52,0,0,0-.2-.43,1.1,1.1,0,0,0-.64-.15,1.56,1.56,0,0,0-.4.05.73.73,0,0,0-.28.17,1.09,1.09,0,0,0-.21.26,2.29,2.29,0,0,0-.16.38h0l-.15-.87h-1.47v.39h0a.68.68,0,0,1,.21,0,.36.36,0,0,1,.17.07.3.3,0,0,1,.11.15.65.65,0,0,1,0,.26v2.07a.67.67,0,0,1,0,.27.31.31,0,0,1-.12.15.41.41,0,0,1-.17.07h-.25v.39h2.42v-.42Z" transform="translate(-45.81 -137.18)"/><path class="cls-1" d="M182.72,163.32a.71.71,0,0,1-.11-.46v-2.15h1v-.5h-1v-.9H182a1.52,1.52,0,0,1-.33.71,1.14,1.14,0,0,1-.3.21.8.8,0,0,1-.41.09v.38h.55v2.24a1.6,1.6,0,0,0,.07.52,1,1,0,0,0,.22.35.66.66,0,0,0,.34.18,1.65,1.65,0,0,0,.46.06H183l.3,0a.77.77,0,0,0,.23-.06l.16-.06v-.47l-.25,0-.28,0A.49.49,0,0,1,182.72,163.32Z" transform="translate(-45.81 -137.18)"/><path class="cls-1" d="M187.77,159.32H188a1.35,1.35,0,0,1,.38.05.51.51,0,0,1,.25.14.55.55,0,0,1,.14.26,1.5,1.5,0,0,1,.05.4,1.62,1.62,0,0,1,0,.41.8.8,0,0,1-.13.28.72.72,0,0,1-.25.16,1.4,1.4,0,0,1-.38,0h-.26v-1.75Zm0,2.19h.53a1.42,1.42,0,0,1,.45.07.75.75,0,0,1,.29.2,1,1,0,0,1,.16.33,2.12,2.12,0,0,1,.05.47,2.31,2.31,0,0,1-.05.49.66.66,0,0,1-.17.32.64.64,0,0,1-.3.17,1.37,1.37,0,0,1-.44.06h-.52v-2.11Zm1.77-2.27a3,3,0,0,0-1.51-.31H186v.39h.3a.39.39,0,0,1,.15,0,.37.37,0,0,1,.12.07.37.37,0,0,1,.08.14.75.75,0,0,1,0,.23v3.42a.81.81,0,0,1,0,.25.37.37,0,0,1-.08.14.23.23,0,0,1-.12.06H186v.39h2.39a2.86,2.86,0,0,0,1.59-.36,1.22,1.22,0,0,0,.54-1.1,1.16,1.16,0,0,0-.1-.49,1.15,1.15,0,0,0-.27-.38,1.56,1.56,0,0,0-.41-.28,2.21,2.21,0,0,0-.53-.18v0a1.6,1.6,0,0,0,.35-.15,1,1,0,0,0,.28-.2.92.92,0,0,0,.17-.29,1.25,1.25,0,0,0,.07-.41A1,1,0,0,0,189.54,159.24Z" transform="translate(-45.81 -137.18)"/><path class="cls-1" d="M194.86,164.06v-.39h-.26a.33.33,0,0,1-.15,0,.32.32,0,0,1-.1-.14.61.61,0,0,1,0-.25v-3h-1.65v.39h.22a.49.49,0,0,1,.17.06.24.24,0,0,1,.11.13.54.54,0,0,1,.05.24v1.34a2,2,0,0,1,0,.44,1,1,0,0,1-.12.33.48.48,0,0,1-.2.2.52.52,0,0,1-.3.08.45.45,0,0,1-.27-.07.55.55,0,0,1-.17-.2,1.14,1.14,0,0,1-.09-.31,2.54,2.54,0,0,1,0-.41v-2.24h-1.61v.39h0a.82.82,0,0,1,.23,0,.24.24,0,0,1,.15.08.54.54,0,0,1,.09.15.9.9,0,0,1,0,.25v1.57a1.57,1.57,0,0,0,.3,1.05,1.1,1.1,0,0,0,.87.34l.33,0a1,1,0,0,0,.3-.08,1.1,1.1,0,0,0,.28-.18,1.67,1.67,0,0,0,.24-.31h0l.16.59Z" transform="translate(-45.81 -137.18)"/><path class="cls-1" d="M197.23,164a1.23,1.23,0,0,0,.5-.24,1.07,1.07,0,0,0,.31-.39,1.21,1.21,0,0,0,.11-.52.76.76,0,0,0-.09-.38,1.33,1.33,0,0,0-.23-.3,1.41,1.41,0,0,0-.35-.23,2.89,2.89,0,0,0-.44-.18l-.5-.18a1.8,1.8,0,0,1-.31-.15.5.5,0,0,1-.16-.17.4.4,0,0,1,0-.2.25.25,0,0,1,.05-.17.37.37,0,0,1,.13-.12.68.68,0,0,1,.19-.08,1.6,1.6,0,0,1,.23,0,.59.59,0,0,1,.49.2.85.85,0,0,1,.17.56,1,1,0,0,0,.57-.13.4.4,0,0,0,.17-.37.59.59,0,0,0-.07-.25.64.64,0,0,0-.22-.21,1.34,1.34,0,0,0-.4-.15,2.46,2.46,0,0,0-.58-.06,3.24,3.24,0,0,0-.65.07,1.57,1.57,0,0,0-.49.21.83.83,0,0,0-.32.35,1,1,0,0,0-.12.49,1,1,0,0,0,.08.41.76.76,0,0,0,.23.31,1.64,1.64,0,0,0,.39.25,4,4,0,0,0,.53.2l.43.16.28.15a.47.47,0,0,1,.15.17.45.45,0,0,1,0,.2.53.53,0,0,1,0,.17.47.47,0,0,1-.36.24,1.12,1.12,0,0,1-.33,0,.66.66,0,0,1-.32-.07.7.7,0,0,1-.26-.19,1.13,1.13,0,0,1-.16-.31,1.27,1.27,0,0,1-.06-.41.9.9,0,0,0-.22,0,.59.59,0,0,0-.4.25.62.62,0,0,0-.07.29.81.81,0,0,0,.08.34.65.65,0,0,0,.25.27,1.3,1.3,0,0,0,.46.18,3.07,3.07,0,0,0,1.35,0Z" transform="translate(-45.81 -137.18)"/><path class="cls-1" d="M198.4,163.67v.39h2.3v-.39h-.25a.43.43,0,0,1-.17-.06.41.41,0,0,1-.18-.39v-3h-1.7v.39h.25a.49.49,0,0,1,.17.06.53.53,0,0,1,.13.13.49.49,0,0,1,.05.23v2.17a.55.55,0,0,1-.05.25.35.35,0,0,1-.13.14.58.58,0,0,1-.17.06h-.25Zm.6-4.54a.41.41,0,0,0,.12.14.62.62,0,0,0,.19.07.85.85,0,0,0,.23,0,.91.91,0,0,0,.23,0,.56.56,0,0,0,.18-.07.35.35,0,0,0,.13-.14.39.39,0,0,0,.06-.19.31.31,0,0,0-.06-.19.43.43,0,0,0-.13-.14.56.56,0,0,0-.18-.07,1.6,1.6,0,0,0-.23,0,.75.75,0,0,0-.23,0,.62.62,0,0,0-.19.07.41.41,0,0,0-.12.14.38.38,0,0,0-.05.19A.53.53,0,0,0,199,159.13Z" transform="translate(-45.81 -137.18)"/><path class="cls-1" d="M205.49,164.06v-.39h-.24a.3.3,0,0,1-.15-.06.32.32,0,0,1-.09-.15.93.93,0,0,1,0-.26v-1.61a2.2,2.2,0,0,0-.08-.61,1,1,0,0,0-.24-.42,1,1,0,0,0-.38-.24,1.31,1.31,0,0,0-.5-.08l-.32,0a.89.89,0,0,0-.29.08.87.87,0,0,0-.26.18,1.39,1.39,0,0,0-.23.32h0l-.09-.61H201v.39h0a.68.68,0,0,1,.21,0,.36.36,0,0,1,.17.07.31.31,0,0,1,.11.14.55.55,0,0,1,0,.24v2.11a.63.63,0,0,1-.05.26.36.36,0,0,1-.12.15.58.58,0,0,1-.17.06H201v.39h2.23v-.39H203a.38.38,0,0,1-.17-.06.31.31,0,0,1-.11-.14.54.54,0,0,1,0-.23v-1.32a1.89,1.89,0,0,1,0-.41,1.2,1.2,0,0,1,.1-.35.87.87,0,0,1,.19-.23.6.6,0,0,1,.31-.09.67.67,0,0,1,.27.06.52.52,0,0,1,.18.18.83.83,0,0,1,.1.29,2.5,2.5,0,0,1,0,.4v2.29h1.6Z" transform="translate(-45.81 -137.18)"/><path class="cls-1" d="M208.29,164a1.75,1.75,0,0,0,.44-.17.6.6,0,0,0,.25-.25.62.62,0,0,0,.09-.3.38.38,0,0,0-.18-.35.76.76,0,0,1-.15.23l-.22.19a1,1,0,0,1-.28.12,1.19,1.19,0,0,1-.33,0,.86.86,0,0,1-.38-.07.66.66,0,0,1-.29-.2.73.73,0,0,1-.18-.35,1.85,1.85,0,0,1-.07-.51h2.29V162a2.37,2.37,0,0,0-.12-.78,1.49,1.49,0,0,0-.33-.56,1.51,1.51,0,0,0-.52-.34,1.83,1.83,0,0,0-.68-.12,2.18,2.18,0,0,0-.75.13,1.25,1.25,0,0,0-.55.37,1.66,1.66,0,0,0-.35.61,2.77,2.77,0,0,0-.12.85,2.21,2.21,0,0,0,.12.8,1.48,1.48,0,0,0,.93,1,2.15,2.15,0,0,0,.79.13A2.24,2.24,0,0,0,208.29,164Zm-.44-3.23a.55.55,0,0,1,.17.24,1.83,1.83,0,0,1,.09.4,3.89,3.89,0,0,1,0,.51H207a1.9,1.9,0,0,1,.18-.92.51.51,0,0,1,.45-.31A.44.44,0,0,1,207.85,160.77Z" transform="translate(-45.81 -137.18)"/><path class="cls-1" d="M212.16,164a1.23,1.23,0,0,0,.5-.24,1.07,1.07,0,0,0,.31-.39,1.21,1.21,0,0,0,.11-.52.76.76,0,0,0-.09-.38,1.33,1.33,0,0,0-.23-.3,1.25,1.25,0,0,0-.35-.23,2.89,2.89,0,0,0-.44-.18l-.5-.18a1.8,1.8,0,0,1-.31-.15.5.5,0,0,1-.16-.17.4.4,0,0,1,0-.2.25.25,0,0,1,0-.17.37.37,0,0,1,.13-.12.68.68,0,0,1,.19-.08,1.6,1.6,0,0,1,.23,0,.59.59,0,0,1,.49.2.85.85,0,0,1,.17.56,1,1,0,0,0,.57-.13.4.4,0,0,0,.17-.37.59.59,0,0,0-.07-.25.64.64,0,0,0-.22-.21,1.34,1.34,0,0,0-.4-.15,2.46,2.46,0,0,0-.58-.06,3.24,3.24,0,0,0-.65.07,1.57,1.57,0,0,0-.49.21.83.83,0,0,0-.32.35,1,1,0,0,0-.12.49,1,1,0,0,0,.08.41.76.76,0,0,0,.23.31,1.64,1.64,0,0,0,.39.25,4,4,0,0,0,.53.2l.43.16.28.15a.47.47,0,0,1,.15.17.45.45,0,0,1,0,.2.53.53,0,0,1,0,.17.47.47,0,0,1-.36.24,1.12,1.12,0,0,1-.33,0,.66.66,0,0,1-.32-.07.7.7,0,0,1-.26-.19,1.13,1.13,0,0,1-.16-.31,1.27,1.27,0,0,1-.06-.41.9.9,0,0,0-.22,0,.59.59,0,0,0-.4.25.62.62,0,0,0-.07.29.81.81,0,0,0,.08.34.65.65,0,0,0,.25.27,1.3,1.3,0,0,0,.46.18,3.3,3.3,0,0,0,.68.06A3.1,3.1,0,0,0,212.16,164Z" transform="translate(-45.81 -137.18)"/><path class="cls-1" d="M215.58,164a1.23,1.23,0,0,0,.5-.24,1.07,1.07,0,0,0,.31-.39,1.21,1.21,0,0,0,.11-.52.76.76,0,0,0-.09-.38,1.33,1.33,0,0,0-.23-.3,1.41,1.41,0,0,0-.35-.23,2.89,2.89,0,0,0-.44-.18l-.5-.18a1.8,1.8,0,0,1-.31-.15.5.5,0,0,1-.16-.17.4.4,0,0,1,0-.2.25.25,0,0,1,.05-.17.37.37,0,0,1,.13-.12.68.68,0,0,1,.19-.08,1.6,1.6,0,0,1,.23,0,.59.59,0,0,1,.49.2.85.85,0,0,1,.17.56,1,1,0,0,0,.57-.13.4.4,0,0,0,.17-.37.59.59,0,0,0-.07-.25.64.64,0,0,0-.22-.21,1.34,1.34,0,0,0-.4-.15,2.46,2.46,0,0,0-.58-.06,3.24,3.24,0,0,0-.65.07,1.57,1.57,0,0,0-.49.21.83.83,0,0,0-.32.35,1,1,0,0,0-.12.49,1,1,0,0,0,.08.41.76.76,0,0,0,.23.31,1.64,1.64,0,0,0,.39.25,4,4,0,0,0,.53.2l.43.16.28.15a.47.47,0,0,1,.15.17.45.45,0,0,1,0,.2.53.53,0,0,1,0,.17.47.47,0,0,1-.36.24,1.12,1.12,0,0,1-.33,0,.66.66,0,0,1-.32-.07.7.7,0,0,1-.26-.19,1.13,1.13,0,0,1-.16-.31,1.27,1.27,0,0,1-.06-.41.9.9,0,0,0-.22,0,.59.59,0,0,0-.4.25.62.62,0,0,0-.07.29.81.81,0,0,0,.08.34.65.65,0,0,0,.25.27,1.3,1.3,0,0,0,.46.18,3.07,3.07,0,0,0,1.35,0Z" transform="translate(-45.81 -137.18)"/><path class="cls-1" d="M219.38,164a1.75,1.75,0,0,0,.44-.17.6.6,0,0,0,.25-.25.62.62,0,0,0,.09-.3.38.38,0,0,0-.18-.35.76.76,0,0,1-.15.23l-.22.19a1,1,0,0,1-.28.12,1.19,1.19,0,0,1-.33,0,.86.86,0,0,1-.38-.07.66.66,0,0,1-.29-.2.73.73,0,0,1-.18-.35,1.85,1.85,0,0,1-.07-.51h2.29V162a2.37,2.37,0,0,0-.12-.78,1.49,1.49,0,0,0-.33-.56,1.51,1.51,0,0,0-.52-.34,1.83,1.83,0,0,0-.68-.12,2.18,2.18,0,0,0-.75.13,1.25,1.25,0,0,0-.55.37,1.66,1.66,0,0,0-.35.61,2.77,2.77,0,0,0-.12.85,2.21,2.21,0,0,0,.12.8,1.48,1.48,0,0,0,.93,1,2.15,2.15,0,0,0,.79.13A2.2,2.2,0,0,0,219.38,164Zm-.44-3.23a.55.55,0,0,1,.17.24,1.83,1.83,0,0,1,.09.4,4,4,0,0,1,0,.51h-1.17a1.9,1.9,0,0,1,.18-.92.51.51,0,0,1,.45-.31A.41.41,0,0,1,218.94,160.77Z" transform="translate(-45.81 -137.18)"/><path class="cls-1" d="M223.26,164a1.23,1.23,0,0,0,.5-.24,1.07,1.07,0,0,0,.31-.39,1.21,1.21,0,0,0,.11-.52.76.76,0,0,0-.09-.38,1.33,1.33,0,0,0-.23-.3,1.25,1.25,0,0,0-.35-.23,2.89,2.89,0,0,0-.44-.18l-.5-.18a1.8,1.8,0,0,1-.31-.15.5.5,0,0,1-.16-.17.4.4,0,0,1,0-.2.25.25,0,0,1,.05-.17.37.37,0,0,1,.13-.12.68.68,0,0,1,.19-.08,1.6,1.6,0,0,1,.23,0,.59.59,0,0,1,.49.2.85.85,0,0,1,.17.56,1,1,0,0,0,.57-.13.4.4,0,0,0,.17-.37.59.59,0,0,0-.07-.25.64.64,0,0,0-.22-.21,1.34,1.34,0,0,0-.4-.15,2.46,2.46,0,0,0-.58-.06,3.24,3.24,0,0,0-.65.07,1.57,1.57,0,0,0-.49.21.83.83,0,0,0-.32.35,1,1,0,0,0-.12.49,1,1,0,0,0,.08.41.76.76,0,0,0,.23.31,1.64,1.64,0,0,0,.39.25,4,4,0,0,0,.53.2l.43.16.28.15a.47.47,0,0,1,.15.17.45.45,0,0,1,0,.2.53.53,0,0,1,0,.17.47.47,0,0,1-.36.24,1.12,1.12,0,0,1-.33,0,.66.66,0,0,1-.32-.07.7.7,0,0,1-.26-.19,1.13,1.13,0,0,1-.16-.31,1.27,1.27,0,0,1-.06-.41.9.9,0,0,0-.22,0,.59.59,0,0,0-.4.25.62.62,0,0,0-.07.29.81.81,0,0,0,.08.34.65.65,0,0,0,.25.27,1.3,1.3,0,0,0,.46.18,3.07,3.07,0,0,0,1.35,0Z" transform="translate(-45.81 -137.18)"/><polygon class="cls-2" points="101.54 4.29 102.13 1.99 92.55 1.99 88.11 19.43 90.96 19.43 92.9 11.8 98.52 11.8 99.11 9.47 93.5 9.47 94.82 4.29 101.54 4.29"/><path class="cls-3" d="M153.86,150.64c-.47,1.82-2,4.18-4.16,4.18-2.34,0-2.77-2.3-2.25-4.36.46-1.82,2-4.15,4.12-4.15C153.85,146.31,154.38,148.61,153.86,150.64Zm2.86-.15c.85-3.33-1.14-6.26-4.5-6.26s-6.77,3-7.63,6.35.91,6.32,4.39,6.32S155.85,153.91,156.72,150.49Z" transform="translate(-45.81 -137.18)"/><path class="cls-2" d="M166.68,144.59a2.79,2.79,0,0,0-1.22-.27,7.16,7.16,0,0,0-3.62,1.6l.32-1.24h-2.67l-3,11.93h2.7l2.19-8.6a7.61,7.61,0,0,1,3-1.33,4.33,4.33,0,0,1,1.15.21Z" transform="translate(-45.81 -137.18)"/><path class="cls-2" d="M186.46,144.74l-2.47-.45s-5.26,10-5.26,9.65c0-.06-.31-9.26-.31-9.26h-2.71s-5.22,9.63-5.21,9.26l0-9.65-2.81.42.45,11.9h3l4.8-8.44.31,8.44h3.09Z" transform="translate(-45.81 -137.18)"/><path class="cls-3" d="M191.16,153.76a10.11,10.11,0,0,1-3.21,1.06c-.84,0-1.31-.51-1-1.57.32-1.24,1.74-1.63,2.68-1.66l2.16-.12Zm2,2.85,2.15-8.42c.55-2.18-.38-3.93-3.08-3.93a14.69,14.69,0,0,0-5,1.06l.26,2.06a12.77,12.77,0,0,1,3.88-.84c1.08,0,1.61.39,1.19,2l-.32,1.24-2.61.09c-2.52.09-4.74,1.27-5.31,3.51s.58,3.48,2.38,3.48a8.87,8.87,0,0,0,4.22-1.57l-.33,1.3Z" transform="translate(-45.81 -137.18)"/><path class="cls-2" d="M205.16,144.59a2.79,2.79,0,0,0-1.22-.27,7.16,7.16,0,0,0-3.62,1.6l.32-1.24H198l-3,11.93h2.71l2.19-8.6a7.61,7.61,0,0,1,3-1.33,4.24,4.24,0,0,1,1.15.21Z" transform="translate(-45.81 -137.18)"/><path class="cls-3" d="M211.32,153.49a5.75,5.75,0,0,1-2.93,1.12c-2.37,0-2.59-2-2-4.2s2.16-4.12,4.29-4.12a5.55,5.55,0,0,1,2.35.58Zm1.91,3.12,5-19.43h-2.7l-1.95,7.63a6.23,6.23,0,0,0-2.33-.54c-3.69,0-6.76,3-7.63,6.38-.91,3.57.51,6.12,3.81,6.12a6.22,6.22,0,0,0,3.54-1.39l-.32,1.24h2.63Z" transform="translate(-45.81 -137.18)"/><path class="cls-3" d="M217.7,156.61l3-11.93h-2.67l-3,11.93Zm4.39-14.85a1.33,1.33,0,0,0-1.36-1.73,2.41,2.41,0,0,0-2.21,1.73,1.3,1.3,0,0,0,1.33,1.72A2.42,2.42,0,0,0,222.09,141.76Z" transform="translate(-45.81 -137.18)"/><path class="cls-2" d="M230.43,156.61l2.1-8.21c.65-2.57-.26-4.14-2.34-4.14-1.68,0-3.38,1-5,1.81l.35-1.39h-2.61l-3,11.93h2.71l2.18-8.57a15.41,15.41,0,0,1,3.95-1.48c1,0,1.42.54,1,2.21l-2,7.84Z" transform="translate(-45.81 -137.18)"/><path class="cls-3" d="M240.11,159.93c-.38,1.48-2.76,2.81-5.22,2.81-1.8,0-3.06-1-2.71-2.3.27-1.06,1.54-1.94,3-2.54a14.26,14.26,0,0,1,1.41-.58l1.27.42C238.77,158,240.46,158.57,240.11,159.93Zm1.24-11.2c-.38,1.6-1.51,2.88-2.78,2.88s-1.84-1.24-1.46-2.84a3.14,3.14,0,0,1,2.82-2.73C241.31,146,241.73,147.13,241.35,148.73Zm1.7,10.87c.58-2.27-1.6-3.39-3.45-3.9l-3.86-1.12a25.73,25.73,0,0,0,3.91-1.3,6.33,6.33,0,0,0,4.45-4.6,3.13,3.13,0,0,0,0-1.88h1.86l.54-2.12h-4.11a4,4,0,0,0-1.93-.42,6.34,6.34,0,0,0-6,4.45,3.43,3.43,0,0,0,1.79,4.27l-3.08,1.24-.43,1.66,2.07.73a7.58,7.58,0,0,0-1,.33c-1.84.6-3.87,1.87-4.34,3.69-.75,2.94,2.27,4.05,4.82,4.05C237.49,164.68,242.15,163.14,243.05,159.6Z" transform="translate(-45.81 -137.18)"/><path class="cls-4" d="M246.84,144.46h4.72s6.13,4.63,6.13,7.07-6.13,7.36-6.13,7.36h-4.72S253,154,253,151.53,246.84,144.46,246.84,144.46Z" transform="translate(-45.81 -137.18)"/><path class="cls-4" d="M240.06,164.91c2.09-1.79,3.84-3.34,5.31-4.69h4.77c-1.47,1.34-3.23,2.89-5.32,4.69Z" transform="translate(-45.81 -137.18)"/><path class="cls-4" d="M254.29,144.46H259s6.13,4.63,6.13,7.07-6.13,7.36-6.13,7.36h-4.72s6.16-4.91,6.16-7.36S254.29,144.46,254.29,144.46Z" transform="translate(-45.81 -137.18)"/><path class="cls-4" d="M247.51,164.91c2.09-1.79,3.84-3.34,5.31-4.69h4.77c-1.47,1.34-3.23,2.89-5.32,4.69Z" transform="translate(-45.81 -137.18)"/><path class="cls-2" d="M57.63,141.23l-.9,1.81a5.41,5.41,0,0,0-3.23-1.23,4.8,4.8,0,0,0-4,1.78,7.2,7.2,0,0,0-1.45,4.71,6.75,6.75,0,0,0,1.42,4.49,4.77,4.77,0,0,0,3.88,1.7,3.87,3.87,0,0,0,2.82-1.05v-3.76H54v-1.86h4.39v7A6.57,6.57,0,0,1,56,156a10.91,10.91,0,0,1-3,.45,6.47,6.47,0,0,1-5.21-2.25,9,9,0,0,1-1.91-6,8.69,8.69,0,0,1,2.09-6,7.26,7.26,0,0,1,5.67-2.33A5.83,5.83,0,0,1,57.63,141.23Z" transform="translate(-45.81 -137.18)"/><path class="cls-2" d="M60.1,152.87V139.62h2.07v12.9A2.05,2.05,0,0,0,62.7,154a1.93,1.93,0,0,0,1.42.54v1.87Q60.1,156.41,60.1,152.87Z" transform="translate(-45.81 -137.18)"/><path class="cls-3" d="M66.26,150.29q0,4.43,3.11,4.43a2.63,2.63,0,0,0,2.27-1.19,5.59,5.59,0,0,0,.83-3.24q0-4.36-3.09-4.37a2.68,2.68,0,0,0-2.27,1.16A5.32,5.32,0,0,0,66.26,150.29Zm-2.17,0a6.44,6.44,0,0,1,1.45-4.39,5.36,5.36,0,0,1,7.73-.07,7.85,7.85,0,0,1,0,8.95,5.36,5.36,0,0,1-7.74,0A6.69,6.69,0,0,1,64.09,150.29Z" transform="translate(-45.81 -137.18)"/><path class="cls-3" d="M77.7,146.89v6.79c0,.12.26.31.77.58a3,3,0,0,0,1.18.4,3.9,3.9,0,0,0,3-1,5.1,5.1,0,0,0,.92-3.43,4.36,4.36,0,0,0-1.07-3.12A3.77,3.77,0,0,0,79.65,146a2.71,2.71,0,0,0-1.07.33A2.65,2.65,0,0,0,77.7,146.89Zm-.31,8.46-.73,1.07h-1v-16.8H77.7v5.69a2.62,2.62,0,0,1,1.1-.75,4.08,4.08,0,0,1,1.6-.34,5,5,0,0,1,3.88,1.67,6.11,6.11,0,0,1,1.49,4.22,6.76,6.76,0,0,1-1.49,4.63,5.14,5.14,0,0,1-4,1.68,4.41,4.41,0,0,1-1.63-.31A3.5,3.5,0,0,1,77.39,155.35Z" transform="translate(-45.81 -137.18)"/><path class="cls-3" d="M93.43,150.42a7.09,7.09,0,0,0-1.37-.22,3.86,3.86,0,0,0-2.56.82,2.42,2.42,0,0,0-1,1.92c0,1.22.72,1.83,2.15,1.83a3.5,3.5,0,0,0,2.78-1.51v-2.84Zm.2,4.42a4.55,4.55,0,0,1-3.8,1.57,3.3,3.3,0,0,1-2.39-1,3.4,3.4,0,0,1-1-2.5,3.74,3.74,0,0,1,1.55-3,6.21,6.21,0,0,1,4-1.24,4.34,4.34,0,0,1,1.48.29c0-1.9-.84-2.85-2.53-2.85a4.05,4.05,0,0,0-3,1L87,145.39a4.85,4.85,0,0,1,1.63-.82,6.38,6.38,0,0,1,2-.35,5,5,0,0,1,3.68,1.16,5.1,5.1,0,0,1,1.16,3.7v4.22a2.2,2.2,0,0,0,.91,2.07v1a3.91,3.91,0,0,1-1.89-.36A2.1,2.1,0,0,1,93.63,154.84Z" transform="translate(-45.81 -137.18)"/><path class="cls-2" d="M97.19,152.87V139.62h2.07v12.9a2,2,0,0,0,.53,1.49,1.91,1.91,0,0,0,1.41.54v1.87Q97.2,156.41,97.19,152.87Z" transform="translate(-45.81 -137.18)"/><path class="cls-4" d="M112.34,140.7l-.73,1.88a5.62,5.62,0,0,0-3.29-.77,4,4,0,0,0-3.38,1.82,8.1,8.1,0,0,0-1.26,4.7,7.16,7.16,0,0,0,1.3,4.46,4.35,4.35,0,0,0,6.82.1l1.2,1.68a6.59,6.59,0,0,1-4.88,1.9,5.92,5.92,0,0,1-4.92-2.27,9.42,9.42,0,0,1-1.8-6,9.21,9.21,0,0,1,1.92-6,6.07,6.07,0,0,1,5-2.38A8.06,8.06,0,0,1,112.34,140.7Z" transform="translate(-45.81 -137.18)"/><path class="cls-5" d="M120.23,150.42a7.09,7.09,0,0,0-1.37-.22,3.86,3.86,0,0,0-2.56.82,2.43,2.43,0,0,0-1,1.92c0,1.22.71,1.83,2.15,1.83a3.47,3.47,0,0,0,2.77-1.51Zm.2,4.42a4.55,4.55,0,0,1-3.8,1.57,3.3,3.3,0,0,1-2.39-1,3.4,3.4,0,0,1-1-2.5,3.73,3.73,0,0,1,1.54-3,6.21,6.21,0,0,1,4-1.24,4.34,4.34,0,0,1,1.48.29c0-1.9-.84-2.85-2.53-2.85a4,4,0,0,0-3,1l-.87-1.75a4.89,4.89,0,0,1,1.62-.82,6.38,6.38,0,0,1,2-.35,5,5,0,0,1,3.68,1.16,5.09,5.09,0,0,1,1.15,3.7v4.22a2.18,2.18,0,0,0,.92,2.07v1a3.88,3.88,0,0,1-1.89-.36A2.13,2.13,0,0,1,120.43,154.84Z" transform="translate(-45.81 -137.18)"/><path class="cls-4" d="M124,152.87V139.62H126v12.9a2,2,0,0,0,.53,1.49,1.91,1.91,0,0,0,1.41.54v1.87Q124,156.41,124,152.87Z" transform="translate(-45.81 -137.18)"/><path class="cls-4" d="M129.29,152.87V139.62h2.07v12.9a2,2,0,0,0,.53,1.49,1.93,1.93,0,0,0,1.42.54v1.87Q129.29,156.41,129.29,152.87Z" transform="translate(-45.81 -137.18)"/></svg>