<svg id="Layer_1" data-name="Layer 1" xmlns="http://www.w3.org/2000/svg" viewBox="0 0 235.14 56.62"><defs><style>.cls-1{fill:#f39120;}.cls-1,.cls-2,.cls-3{fill-rule:evenodd;}.cls-2{fill:#30577a;}.cls-3{fill:#fff;}.cls-4{fill:#37567a;}</style></defs><title>powered-by-color</title><path class="cls-1" d="M139.35,108.87H137v9a4.83,4.83,0,0,0,1,3.35,4,4,0,0,0,3.09,1.12,3.92,3.92,0,0,0,3.25-1.74,5.68,5.68,0,0,0,.44-.68v1.94h2.3v-13h-2.4v7a6,6,0,0,1-.8,3.35,2.47,2.47,0,0,1-2.16,1.22,2.09,2.09,0,0,1-1.78-.72,4.06,4.06,0,0,1-.54-2.38v-8.44Z" transform="translate(-24.96 -104.05)"/><path class="cls-2" d="M150.61,121.85H153v-7a5.53,5.53,0,0,1,.86-3.27,2.63,2.63,0,0,1,2.3-1.22,2.34,2.34,0,0,1,2,.78,4,4,0,0,1,.62,2.48v8.28h2.4v-9a4.54,4.54,0,0,0-1.14-3.33,4.24,4.24,0,0,0-3.21-1.18,4.32,4.32,0,0,0-3.47,1.64l-.46.64v-1.8h-2.3v13Z" transform="translate(-24.96 -104.05)"/><path class="cls-2" d="M164.28,106.46h2.4v-2.4h-2.4Zm0,15.39h2.4v-13h-2.4Z" transform="translate(-24.96 -104.05)"/><path class="cls-2" d="M174.56,119.93h-.72a1.37,1.37,0,0,1-.86-.24.71.71,0,0,1-.34-.62v-7.8h1.92v-2.4h-1.92V105.5h-2.4v3.37h-1.92v2.4h1.92v8a2.77,2.77,0,0,0,.6,2,3,3,0,0,0,2.08.58h1.64v-1.92Z" transform="translate(-24.96 -104.05)"/><path class="cls-2" d="M178.61,113.68a3.93,3.93,0,0,1,.92-2.26,3.17,3.17,0,0,1,2.57-1.1,3,3,0,0,1,2.42,1,3.88,3.88,0,0,1,.84,2.4Zm7.21,7.55a5.43,5.43,0,0,0,1.92-3.23h-2.4a2.79,2.79,0,0,1-1.08,1.72,3.23,3.23,0,0,1-2.06.68,3.08,3.08,0,0,1-2.75-1.28,6,6,0,0,1-.84-3.05h9.12l0-.78a7.79,7.79,0,0,0-1.52-5,4.92,4.92,0,0,0-4-1.9,5.42,5.42,0,0,0-4.39,2,8.13,8.13,0,0,0-1.62,5.31,7.05,7.05,0,0,0,1.58,4.89,5.35,5.35,0,0,0,4.29,1.78A6.08,6.08,0,0,0,185.82,121.23Z" transform="translate(-24.96 -104.05)"/><path class="cls-2" d="M198.13,112.11a7,7,0,0,1,.88,3.79,4.41,4.41,0,0,1-.92,2.93,3,3,0,0,1-2.44,1.1,2.91,2.91,0,0,1-2.5-1.2,5.69,5.69,0,0,1-.86-3.43,5.78,5.78,0,0,1,.8-3.43,3,3,0,0,1,2.57-1.08A2.8,2.8,0,0,1,198.13,112.11Zm.76,8.52.28-.4v1.62h2.24v-17.8H199v6.57l-.16-.24a4.28,4.28,0,0,0-3.71-2,4.6,4.6,0,0,0-3.81,1.82,7.44,7.44,0,0,0-1.46,4.79,8.63,8.63,0,0,0,1.5,5.35,4.84,4.84,0,0,0,4.07,2A4.11,4.11,0,0,0,198.89,120.63Z" transform="translate(-24.96 -104.05)"/><polygon class="cls-1" points="182.91 17.8 184.05 17.8 186.55 7.62 186.53 7.62 189.2 17.8 190.36 17.8 191.5 17.8 195.13 4.82 194.07 4.82 193.01 4.82 190.4 15.26 190.38 15.26 187.82 4.82 186.61 4.82 185.41 4.82 182.93 15.2 182.93 15.2 180.46 4.82 179.28 4.82 178.1 4.82 181.74 17.8 182.91 17.8"/><path class="cls-2" d="M227.52,120.41a3,3,0,0,1-2.63-1.36,6.33,6.33,0,0,1-1-3.69,6.22,6.22,0,0,1,1-3.67,3.2,3.2,0,0,1,5.26,0,6.08,6.08,0,0,1,1,3.67,6.18,6.18,0,0,1-1,3.69A3,3,0,0,1,227.52,120.41Zm0,1.92a5.5,5.5,0,0,0,4.37-1.92,8.51,8.51,0,0,0,0-10.1,5.91,5.91,0,0,0-8.72,0,8.6,8.6,0,0,0,0,10.1A5.53,5.53,0,0,0,227.52,122.33Z" transform="translate(-24.96 -104.05)"/><path class="cls-2" d="M236.14,121.85h2.4v-7a4.47,4.47,0,0,1,.9-3,3.22,3.22,0,0,1,2.55-1l.4,0v-2.32a2.09,2.09,0,0,0-.6-.1,3.31,3.31,0,0,0-2.81,1.7,10.92,10.92,0,0,0-.54,1v-2.18h-2.3v13Z" transform="translate(-24.96 -104.05)"/><polygon class="cls-2" points="219.08 17.8 220.28 17.8 221.48 17.8 221.48 0.01 220.28 0.01 219.08 0.01 219.08 17.8"/><path class="cls-2" d="M256.82,112.11a7,7,0,0,1,.88,3.79,4.41,4.41,0,0,1-.92,2.93,3,3,0,0,1-2.44,1.1,2.91,2.91,0,0,1-2.5-1.2,5.69,5.69,0,0,1-.86-3.43,5.78,5.78,0,0,1,.8-3.43,3,3,0,0,1,2.57-1.08A2.78,2.78,0,0,1,256.82,112.11Zm.76,8.52.28-.4v1.62h2.24v-17.8h-2.4v6.57l-.16-.24a4.28,4.28,0,0,0-3.71-2A4.6,4.6,0,0,0,250,110.2a7.44,7.44,0,0,0-1.46,4.79,8.63,8.63,0,0,0,1.5,5.35,4.84,4.84,0,0,0,4.07,2A4.1,4.1,0,0,0,257.58,120.63Z" transform="translate(-24.96 -104.05)"/><path class="cls-1" d="M158.11,123.78s-21.16,0-21.16,0,.16,35.11,39.44,35.11C176.74,158.89,158.11,155.28,158.11,123.78Z" transform="translate(-24.96 -104.05)"/><path class="cls-2" d="M193.7,123.78s21.16,0,21.16,0-.16,35.11-39.44,35.11C175.06,158.89,193.7,155.28,193.7,123.78Z" transform="translate(-24.96 -104.05)"/><path class="cls-2" d="M216.3,123.78s21.16,0,21.16,0-.16,35.11-39.44,35.11C197.67,158.89,216.3,155.28,216.3,123.78Z" transform="translate(-24.96 -104.05)"/><path class="cls-2" d="M238.91,123.78s21.16,0,21.16,0-.16,35.11-39.44,35.11C220.27,158.89,238.91,155.28,238.91,123.78Z" transform="translate(-24.96 -104.05)"/><path class="cls-3" d="M219.09,129.05h-.2a.79.79,0,0,1-.3,0c-.06,0-.08-.08-.08-.18v-2h.58v-.58h-.58v-.9h-.9v.9h-.44v.58h.44V129a.76.76,0,0,0,.22.6,1.09,1.09,0,0,0,.7.18h.56Z" transform="translate(-24.96 -104.05)"/><path class="cls-3" d="M222.86,127.7a1.84,1.84,0,0,1,.18-.56.71.71,0,0,1,.62-.34.74.74,0,0,1,.64.3,1.18,1.18,0,0,1,.18.6Zm1.94,1.91a1.37,1.37,0,0,0,.58-.86h-.9a.51.51,0,0,1-.24.32.86.86,0,0,1-.44.12.88.88,0,0,1-.74-.26,1,1,0,0,1-.22-.62h2.53a1,1,0,0,0,0-.24,2.22,2.22,0,0,0-.46-1.48,1.6,1.6,0,0,0-1.26-.52,1.65,1.65,0,0,0-1.26.5A2,2,0,0,0,222,128a2.12,2.12,0,0,0,.44,1.46,1.55,1.55,0,0,0,1.28.52A1.84,1.84,0,0,0,224.8,129.61Z" transform="translate(-24.96 -104.05)"/><polygon class="cls-3" points="203.57 25.74 204.01 25.74 204.45 25.74 204.45 20.99 204.01 20.99 203.57 20.99 203.57 25.74"/><path class="cls-3" d="M233.62,127.7a1.84,1.84,0,0,1,.18-.56.78.78,0,0,1,1.26,0,1.18,1.18,0,0,1,.18.6Zm1.94,1.91a1.37,1.37,0,0,0,.58-.86h-.9a.51.51,0,0,1-.24.32.86.86,0,0,1-.44.12.9.9,0,0,1-.74-.26,1.19,1.19,0,0,1-.22-.62h2.53a1,1,0,0,0,0-.24,2.33,2.33,0,0,0-.44-1.48,1.61,1.61,0,0,0-1.28-.52,1.69,1.69,0,0,0-1.26.5,2,2,0,0,0-.44,1.38,2.12,2.12,0,0,0,.44,1.46,1.55,1.55,0,0,0,1.28.52A1.8,1.8,0,0,0,235.56,129.61Z" transform="translate(-24.96 -104.05)"/><path class="cls-3" d="M242.49,128.59a.74.74,0,0,1-.24.44.71.71,0,0,1-.46.16.69.69,0,0,1-.6-.3,1.51,1.51,0,0,1-.2-.88,1.55,1.55,0,0,1,.2-.88.71.71,0,0,1,.6-.32.65.65,0,0,1,.48.18.55.55,0,0,1,.22.42h.88a1.3,1.3,0,0,0-.46-1,1.76,1.76,0,0,0-1.12-.38,1.54,1.54,0,0,0-1.24.54,2.43,2.43,0,0,0,0,2.82,1.59,1.59,0,0,0,1.26.5,1.69,1.69,0,0,0,1.1-.36,1.44,1.44,0,0,0,.48-1Z" transform="translate(-24.96 -104.05)"/><path class="cls-3" d="M248.17,129.19a.75.75,0,0,1-.66-.3,1.4,1.4,0,0,1-.24-.88,1.36,1.36,0,0,1,.24-.88.76.76,0,0,1,.66-.32.82.82,0,0,1,.66.32,1.36,1.36,0,0,1,.24.88,1.4,1.4,0,0,1-.24.88A.8.8,0,0,1,248.17,129.19Zm0,.74a1.72,1.72,0,0,0,1.3-.52A2,2,0,0,0,250,128a2,2,0,0,0-.48-1.42,1.89,1.89,0,0,0-2.6,0,2,2,0,0,0-.48,1.42,2,2,0,0,0,.48,1.4A1.69,1.69,0,0,0,248.17,129.93Z" transform="translate(-24.96 -104.05)"/><path class="cls-3" d="M253.1,129.79h.9v-2.24a.83.83,0,0,1,.16-.54.59.59,0,0,1,.46-.2.54.54,0,0,1,.42.16.75.75,0,0,1,.16.5v2.32h.88v-2.24a.83.83,0,0,1,.16-.54.63.63,0,0,1,.48-.2.53.53,0,0,1,.42.2,1.23,1.23,0,0,1,.14.62v2.16h.88v-2.4a1.33,1.33,0,0,0-.32-1,1.16,1.16,0,0,0-.9-.36,1,1,0,0,0-.86.4l-.12.2a.84.84,0,0,0-.18-.28,1.06,1.06,0,0,0-.76-.32,1.11,1.11,0,0,0-.92.44,1.22,1.22,0,0,0-.14.28v-.56h-.86v3.56Z" transform="translate(-24.96 -104.05)"/><path class="cls-4" d="M27.77,154.68l-.4,2.33-.7,3.57H25l3.1-15.51h1.41l-.13,1.44h.07a10.36,10.36,0,0,1,1.79-1.2,4.18,4.18,0,0,1,2-.51,2.83,2.83,0,0,1,2.29,1,4.45,4.45,0,0,1,.85,2.93,8.56,8.56,0,0,1-.49,2.94,8.13,8.13,0,0,1-1.31,2.38,6.47,6.47,0,0,1-1.89,1.59,4.49,4.49,0,0,1-2.19.58,2.77,2.77,0,0,1-1.53-.44,3.49,3.49,0,0,1-1.1-1.13h-.05Zm4.78-8.44a3.69,3.69,0,0,0-1.67.47A6.11,6.11,0,0,0,29.19,148l-1,5.21a3.14,3.14,0,0,0,1,1.21,2.2,2.2,0,0,0,1.21.36,2.91,2.91,0,0,0,1.57-.48A4.65,4.65,0,0,0,33.28,153a7.11,7.11,0,0,0,.92-1.85,6.93,6.93,0,0,0,.35-2.19,3.35,3.35,0,0,0-.53-2.07A1.74,1.74,0,0,0,32.55,146.24Z" transform="translate(-24.96 -104.05)"/><path class="cls-4" d="M41.51,156.25a3.64,3.64,0,0,1-2.83-1.17,4.63,4.63,0,0,1-1-3.21,8,8,0,0,1,.49-2.85,7.12,7.12,0,0,1,1.32-2.23,6.16,6.16,0,0,1,1.89-1.46,4.83,4.83,0,0,1,2.18-.53A3.66,3.66,0,0,1,46.35,146a4.59,4.59,0,0,1,1.07,3.21,8,8,0,0,1-.5,2.85,7.52,7.52,0,0,1-1.32,2.23,6,6,0,0,1-1.89,1.46A5,5,0,0,1,41.51,156.25Zm.18-1.44a2.77,2.77,0,0,0,1.47-.44,4.86,4.86,0,0,0,1.27-1.18,6.27,6.27,0,0,0,.9-1.75,6.87,6.87,0,0,0,.34-2.15,3.8,3.8,0,0,0-.59-2.28,2.05,2.05,0,0,0-1.74-.8,2.81,2.81,0,0,0-1.46.44,4.49,4.49,0,0,0-1.28,1.19,6.48,6.48,0,0,0-.9,1.76,6.88,6.88,0,0,0-.34,2.16A3.77,3.77,0,0,0,40,154,2,2,0,0,0,41.69,154.81Z" transform="translate(-24.96 -104.05)"/><path class="cls-4" d="M50.06,156l-.79-10.91H51l.36,6.42c0,.52,0,1,0,1.54l0,1.52h.09c.22-.51.44-1,.64-1.52s.42-1,.66-1.54l2.87-6.42h1.68l.38,6.42c0,.52.05,1,.06,1.54s0,1,.06,1.52h.09c.21-.51.41-1,.61-1.52s.41-1,.65-1.54L62,145.07h1.62L58.7,156H56.57l-.32-6q0-.78,0-1.59l0-1.62H56.1c-.22.54-.45,1.08-.66,1.62s-.44,1.07-.66,1.59l-2.65,6Z" transform="translate(-24.96 -104.05)"/><path class="cls-4" d="M63.86,151.69a7.4,7.4,0,0,1,1.86-5,5.92,5.92,0,0,1,1.86-1.4,4.88,4.88,0,0,1,2.12-.5,3.68,3.68,0,0,1,1.56.3,2.76,2.76,0,0,1,1,.83,3.32,3.32,0,0,1,.58,1.26,6.54,6.54,0,0,1,.18,1.56,5.48,5.48,0,0,1-.14,1.24,7.4,7.4,0,0,1-.25.9H65.58a4.72,4.72,0,0,0,0,1.81,3.09,3.09,0,0,0,.59,1.25,2.44,2.44,0,0,0,1,.72,3.77,3.77,0,0,0,1.32.22,3.16,3.16,0,0,0,1.29-.28,6.07,6.07,0,0,0,1.15-.66l.67,1.14a6.46,6.46,0,0,1-1.55.82,5.47,5.47,0,0,1-2,.35A4.18,4.18,0,0,1,65,155.07,4.7,4.7,0,0,1,63.86,151.69Zm1.91-2h5.72c0-.18.06-.36.08-.54a5.35,5.35,0,0,0,0-.58,3.84,3.84,0,0,0-.11-.91,2.32,2.32,0,0,0-.36-.78,1.92,1.92,0,0,0-.65-.54,2.27,2.27,0,0,0-1-.2,2.88,2.88,0,0,0-1.18.25,3.67,3.67,0,0,0-1.07.72,5.93,5.93,0,0,0-.89,1.12A6.18,6.18,0,0,0,65.77,149.72Z" transform="translate(-24.96 -104.05)"/><path class="cls-4" d="M74.08,156l2.16-10.91h1.41l-.25,2.09h.09A6.7,6.7,0,0,1,79,145.47a3,3,0,0,1,1.87-.67,2.66,2.66,0,0,1,1,.2l-.61,1.53a2.1,2.1,0,0,0-.94-.18,2.63,2.63,0,0,0-1.66.7,6.21,6.21,0,0,0-1.55,2L75.78,156Z" transform="translate(-24.96 -104.05)"/><path class="cls-4" d="M81.21,151.69a7.4,7.4,0,0,1,1.86-5,5.92,5.92,0,0,1,1.86-1.4,4.88,4.88,0,0,1,2.12-.5,3.68,3.68,0,0,1,1.56.3,2.76,2.76,0,0,1,1,.83,3.32,3.32,0,0,1,.58,1.26,6.54,6.54,0,0,1,.18,1.56,5.48,5.48,0,0,1-.14,1.24,7.4,7.4,0,0,1-.25.9H82.93a4.72,4.72,0,0,0,0,1.81,3.09,3.09,0,0,0,.59,1.25,2.44,2.44,0,0,0,1,.72,3.77,3.77,0,0,0,1.32.22,3.16,3.16,0,0,0,1.29-.28,6.07,6.07,0,0,0,1.15-.66l.67,1.14a6.46,6.46,0,0,1-1.55.82,5.47,5.47,0,0,1-2,.35,4.18,4.18,0,0,1-3.12-1.18A4.7,4.7,0,0,1,81.21,151.69Zm1.91-2h5.72c0-.18.06-.36.08-.54a5.35,5.35,0,0,0,0-.58,3.84,3.84,0,0,0-.11-.91,2.32,2.32,0,0,0-.36-.78,1.92,1.92,0,0,0-.65-.54,2.27,2.27,0,0,0-1-.2,2.88,2.88,0,0,0-1.18.25,3.67,3.67,0,0,0-1.07.72,5.93,5.93,0,0,0-.89,1.12A6.18,6.18,0,0,0,83.12,149.72Z" transform="translate(-24.96 -104.05)"/><path class="cls-4" d="M100.16,146.4l.36-2.13.85-4.26h1.73l-3.23,16H98.46l.18-1.62h-.09a6.63,6.63,0,0,1-1.77,1.37,4.37,4.37,0,0,1-2,.52,2.85,2.85,0,0,1-2.29-1,4.44,4.44,0,0,1-.85-2.94,8.56,8.56,0,0,1,.49-2.94A8.17,8.17,0,0,1,93.43,147a6.32,6.32,0,0,1,1.89-1.59,4.47,4.47,0,0,1,2.2-.58,2.72,2.72,0,0,1,1.53.44,3.27,3.27,0,0,1,1,1.16h.06Zm-4.78,8.41a3.49,3.49,0,0,0,1.73-.5,6.35,6.35,0,0,0,1.71-1.58l1-4.87a3.43,3.43,0,0,0-1-1.23,2.1,2.1,0,0,0-1.19-.38,2.91,2.91,0,0,0-1.57.48A4.85,4.85,0,0,0,94.67,148a7,7,0,0,0-1.28,4,3.38,3.38,0,0,0,.54,2.1A1.71,1.71,0,0,0,95.38,154.81Z" transform="translate(-24.96 -104.05)"/><path class="cls-4" d="M108.26,156h-1.41L110,140h1.73l-.88,4.26-.49,2.15h0a10.27,10.27,0,0,1,1.75-1.13,4.27,4.27,0,0,1,2-.49,2.85,2.85,0,0,1,2.29,1,4.44,4.44,0,0,1,.85,2.94,8.56,8.56,0,0,1-.49,2.94,8.13,8.13,0,0,1-1.31,2.38,6.47,6.47,0,0,1-1.89,1.59,4.49,4.49,0,0,1-2.19.58,2.79,2.79,0,0,1-1.56-.45,3.08,3.08,0,0,1-1.07-1.19h-.07Zm5.25-9.74a3.69,3.69,0,0,0-1.67.47,6.22,6.22,0,0,0-1.69,1.3l-1,5.18a3.43,3.43,0,0,0,1,1.24,2.14,2.14,0,0,0,1.21.38,2.91,2.91,0,0,0,1.57-.48,4.65,4.65,0,0,0,1.33-1.29,7.11,7.11,0,0,0,.92-1.85,6.93,6.93,0,0,0,.35-2.19,3.35,3.35,0,0,0-.53-2.07A1.74,1.74,0,0,0,113.51,146.24Z" transform="translate(-24.96 -104.05)"/><path class="cls-4" d="M117.35,160.67a2.82,2.82,0,0,1-.59-.07,2.3,2.3,0,0,1-.66-.25l.56-1.28a1.73,1.73,0,0,0,.81.2,2.27,2.27,0,0,0,1.56-.67,5.89,5.89,0,0,0,1.29-1.82l.4-.79-1.86-10.93h1.71l.85,6.13c.08.49.14,1,.2,1.61s.11,1.13.16,1.65h.09c.25-.52.52-1.07.8-1.63l.82-1.63,3.14-6.13h1.71l-6.42,11.83a12.51,12.51,0,0,1-.9,1.49,7,7,0,0,1-1,1.19,4.66,4.66,0,0,1-1.2.8A3.48,3.48,0,0,1,117.35,160.67Z" transform="translate(-24.96 -104.05)"/></svg>