<svg id="Layer_1" data-name="Layer 1" xmlns="http://www.w3.org/2000/svg" viewBox="0 0 1057.54 577.09"><defs><style>.cls-1{fill:#f3f4f4;}.cls-2,.cls-3{fill:#184069;}.cls-3{fill-rule:evenodd;}.cls-4{fill:#c3cbd6;}.cls-5{fill:#f9debb;}</style></defs><path class="cls-1" d="M787.4,222.77c-60.8,16.66-125.81,18.18-249.58-6.92-147.82-30-255-72.68-280.51-83A1588.36,1588.36,0,0,1,0,0V424.6c72.27,38.46,176.93,77.14,300.38,70,131.05-7.58,224.75-63.4,339-131.47,104-62,178.47-126.14,225.29-171A378.7,378.7,0,0,1,787.4,222.77Z" transform="translate(0.05)"/><polygon class="cls-2" points="604.09 376.76 604.35 382.85 638.18 382.85 639.61 376.76 604.09 376.76"/><polygon class="cls-2" points="638.87 385.61 604.42 385.61 604.7 391.7 637.38 391.7 638.87 385.61"/><polygon class="cls-2" points="634.63 400.56 636.54 394.46 604.76 394.46 605.11 400.56 634.63 400.56"/><path class="cls-2" d="M605.41,409.22Q619.62,406,634,403.31H605Z" transform="translate(0.05)"/><path class="cls-3" d="M656.16,365.16" transform="translate(0.05)"/><path class="cls-4" d="M1057.49,135.92A3802.11,3802.11,0,0,1,629.86,399.2q-68.6,36.24-135.59,68.28A919.64,919.64,0,0,1,657.8,446.94c98.48-3.48,173.05,9.68,216.37,17.57a1096.82,1096.82,0,0,1,183.32,50.18Z" transform="translate(0.05)"/><path class="cls-5" d="M1057.49,14.69C752.2,241.38,511.42,396.3,401.49,451.2c-93.36,46.6-183.72,70.23-183.72,70.23A926.59,926.59,0,0,1,53,548.84a488.21,488.21,0,0,0,114.24,25.91c169.88,17.38,304.09-61,636.24-263.95,102.79-62.82,190-116.48,254-155.94Z" transform="translate(0.05)"/><path class="cls-5" d="M126,474.11A427.6,427.6,0,0,1,0,423.79v80.45a483.92,483.92,0,0,0,85,6.2,482.08,482.08,0,0,0,148.12-25.62A446,446,0,0,1,126,474.11Z" transform="translate(0.05)"/></svg>