<svg id="Layer_1" data-name="Layer 1" xmlns="http://www.w3.org/2000/svg" viewBox="0 0 61.46 27.36"><defs><style>.cls-1{fill:#f49003;}.cls-1,.cls-2,.cls-3{fill-rule:evenodd;}.cls-2{fill:#2f5679;}.cls-3{fill:#fff;}</style></defs><title>united-world-telecom-logo</title><path class="cls-1" d="M105.7,4.54h-1.2V9A2.4,2.4,0,0,0,105,10.7a2,2,0,0,0,1.54.56,2,2,0,0,0,1.62-.87,2.84,2.84,0,0,0,.22-.34v1h1.15V4.54h-1.2V8a3,3,0,0,1-.4,1.67,1.23,1.23,0,0,1-1.08.61,1,1,0,0,1-.89-.36,2,2,0,0,1-.27-1.19Z" transform="translate(-104.5 -2.14)"/><path class="cls-2" d="M111.32,11h1.2V7.5A2.74,2.74,0,0,1,113,5.87a1.31,1.31,0,0,1,1.15-.61,1.17,1.17,0,0,1,1,.39,2,2,0,0,1,.31,1.24V11h1.2V6.55A2.26,2.26,0,0,0,116,4.89a2.11,2.11,0,0,0-1.6-.59,2.15,2.15,0,0,0-1.73.82l-.23.32v-.9h-1.15Z" transform="translate(-104.5 -2.14)"/><path class="cls-2" d="M118.14,3.34h1.2V2.14h-1.2Zm0,7.68h1.2V4.54h-1.2Z" transform="translate(-104.5 -2.14)"/><path class="cls-2" d="M123.27,10.06h-.36a.69.69,0,0,1-.43-.12.36.36,0,0,1-.17-.31V5.74h1V4.54h-1V2.86h-1.2V4.54h-1v1.2h1v4a1.39,1.39,0,0,0,.3,1,1.5,1.5,0,0,0,1,.29h.82Z" transform="translate(-104.5 -2.14)"/><path class="cls-2" d="M125.29,6.94a2,2,0,0,1,.46-1.13A1.58,1.58,0,0,1,127,5.26a1.52,1.52,0,0,1,1.21.48,1.94,1.94,0,0,1,.42,1.2Zm3.6,3.77a2.72,2.72,0,0,0,1-1.61h-1.2a1.39,1.39,0,0,1-.54.86,1.62,1.62,0,0,1-1,.34,1.52,1.52,0,0,1-1.37-.64,3,3,0,0,1-.42-1.52h4.55V7.75a3.88,3.88,0,0,0-.76-2.5,2.46,2.46,0,0,0-2-1,2.7,2.7,0,0,0-2.19,1,4.05,4.05,0,0,0-.81,2.65,3.51,3.51,0,0,0,.79,2.44,2.67,2.67,0,0,0,2.14.89A3.07,3.07,0,0,0,128.89,10.71Z" transform="translate(-104.5 -2.14)"/><path class="cls-2" d="M135,6.16a3.48,3.48,0,0,1,.44,1.89A2.18,2.18,0,0,1,135,9.51a1.51,1.51,0,0,1-1.22.55,1.45,1.45,0,0,1-1.25-.6,2.84,2.84,0,0,1-.43-1.71,2.87,2.87,0,0,1,.4-1.71,1.5,1.5,0,0,1,1.28-.54A1.39,1.39,0,0,1,135,6.16Zm.38,4.25.14-.2V11h1.12V2.14h-1.2V5.42l-.08-.12a2.14,2.14,0,0,0-1.85-1,2.29,2.29,0,0,0-1.9.91,3.7,3.7,0,0,0-.73,2.39,4.3,4.3,0,0,0,.75,2.67,2.42,2.42,0,0,0,2,1A2.06,2.06,0,0,0,135.41,10.41Z" transform="translate(-104.5 -2.14)"/><polygon class="cls-1" points="35.39 8.88 35.96 8.88 37.21 3.8 37.2 3.8 38.53 8.88 39.11 8.88 39.68 8.88 41.49 2.4 40.96 2.4 40.43 2.4 39.13 7.61 39.12 7.61 37.84 2.4 37.24 2.4 36.64 2.4 35.4 7.58 35.4 7.58 34.17 2.4 33.58 2.4 32.99 2.4 34.81 8.88 35.39 8.88"/><path class="cls-2" d="M149.7,10.3a1.51,1.51,0,0,1-1.31-.68,3.16,3.16,0,0,1-.48-1.84A3.1,3.1,0,0,1,148.39,6,1.59,1.59,0,0,1,151,6a3,3,0,0,1,.5,1.83,3.09,3.09,0,0,1-.5,1.84A1.51,1.51,0,0,1,149.7,10.3Zm0,1a2.74,2.74,0,0,0,2.18-1,3.73,3.73,0,0,0,.83-2.52,3.73,3.73,0,0,0-.83-2.52,2.94,2.94,0,0,0-4.35,0,3.73,3.73,0,0,0-.82,2.52,3.73,3.73,0,0,0,.82,2.52A2.75,2.75,0,0,0,149.7,11.26Z" transform="translate(-104.5 -2.14)"/><path class="cls-2" d="M154,11h1.2V7.51A2.21,2.21,0,0,1,155.65,6a1.61,1.61,0,0,1,1.27-.52h.2V4.35a1,1,0,0,0-.3,0,1.64,1.64,0,0,0-1.4.85,5.46,5.46,0,0,0-.27.48V4.54H154Z" transform="translate(-104.5 -2.14)"/><polygon class="cls-2" points="53.44 8.88 54.04 8.88 54.64 8.88 54.64 0 54.04 0 53.44 0 53.44 8.88"/><path class="cls-2" d="M164.32,6.16a3.48,3.48,0,0,1,.44,1.89,2.18,2.18,0,0,1-.46,1.46,1.51,1.51,0,0,1-1.22.55,1.45,1.45,0,0,1-1.25-.6,2.84,2.84,0,0,1-.43-1.71A2.87,2.87,0,0,1,161.8,6a1.5,1.5,0,0,1,1.28-.54A1.39,1.39,0,0,1,164.32,6.16Zm.38,4.25.14-.2V11H166V2.14h-1.2V5.42l-.08-.12a2.14,2.14,0,0,0-1.85-1,2.29,2.29,0,0,0-1.9.91,3.7,3.7,0,0,0-.73,2.39,4.3,4.3,0,0,0,.75,2.67,2.42,2.42,0,0,0,2,1A2.06,2.06,0,0,0,164.7,10.41Z" transform="translate(-104.5 -2.14)"/><path class="cls-1" d="M115.06,12H104.5s.08,17.52,19.68,17.52C124.36,29.5,115.06,27.7,115.06,12Z" transform="translate(-104.5 -2.14)"/><path class="cls-2" d="M132.82,12h10.56S143.3,29.5,123.7,29.5C123.52,29.5,132.82,27.7,132.82,12Z" transform="translate(-104.5 -2.14)"/><path class="cls-2" d="M144.1,12h10.56S154.58,29.5,135,29.5C134.8,29.5,144.1,27.7,144.1,12Z" transform="translate(-104.5 -2.14)"/><path class="cls-2" d="M155.38,12h10.56s-.08,17.52-19.68,17.52C146.08,29.5,155.38,27.7,155.38,12Z" transform="translate(-104.5 -2.14)"/><path class="cls-3" d="M145.49,14.61h-.1a.4.4,0,0,1-.15,0s0,0,0-.09v-1h.29V13.2h-.29v-.45h-.45v.45h-.22v.29h.22v1.1a.38.38,0,0,0,.11.3.54.54,0,0,0,.35.09h.28Z" transform="translate(-104.5 -2.14)"/><path class="cls-3" d="M147.37,13.94a.92.92,0,0,1,.09-.28.36.36,0,0,1,.31-.17.37.37,0,0,1,.32.15.59.59,0,0,1,.09.3Zm1,1a.69.69,0,0,0,.29-.43h-.45a.25.25,0,0,1-.12.16.43.43,0,0,1-.22.06.44.44,0,0,1-.37-.13.52.52,0,0,1-.11-.31h1.26a.49.49,0,0,0,0-.12,1.11,1.11,0,0,0-.23-.74.8.8,0,0,0-.63-.26.83.83,0,0,0-.63.25,1,1,0,0,0-.22.69,1.06,1.06,0,0,0,.22.73.78.78,0,0,0,.64.26A.93.93,0,0,0,148.34,14.89Z" transform="translate(-104.5 -2.14)"/><polygon class="cls-3" points="45.7 12.84 45.92 12.84 46.14 12.84 46.14 10.47 45.92 10.47 45.7 10.47 45.7 12.84"/><path class="cls-3" d="M152.74,13.94a.92.92,0,0,1,.09-.28.39.39,0,0,1,.63,0,.59.59,0,0,1,.09.3Zm1,1a.69.69,0,0,0,.29-.43h-.45a.25.25,0,0,1-.12.16.43.43,0,0,1-.22.06.45.45,0,0,1-.37-.13.59.59,0,0,1-.11-.31H154a.49.49,0,0,0,0-.12,1.16,1.16,0,0,0-.22-.74.81.81,0,0,0-.64-.26.84.84,0,0,0-.63.25,1,1,0,0,0-.22.69,1.06,1.06,0,0,0,.22.73.78.78,0,0,0,.64.26A.91.91,0,0,0,153.71,14.89Z" transform="translate(-104.5 -2.14)"/><path class="cls-3" d="M157.17,14.38a.37.37,0,0,1-.12.22.36.36,0,0,1-.23.08.34.34,0,0,1-.3-.15.75.75,0,0,1-.1-.44.78.78,0,0,1,.1-.44.35.35,0,0,1,.3-.16.32.32,0,0,1,.24.09.27.27,0,0,1,.11.21h.44a.65.65,0,0,0-.23-.48.88.88,0,0,0-.56-.19.77.77,0,0,0-.62.27,1.22,1.22,0,0,0,0,1.41.79.79,0,0,0,.63.25.85.85,0,0,0,.55-.18.72.72,0,0,0,.24-.49Z" transform="translate(-104.5 -2.14)"/><path class="cls-3" d="M160,14.68a.37.37,0,0,1-.33-.15.7.7,0,0,1-.12-.44.68.68,0,0,1,.12-.44.38.38,0,0,1,.33-.16.41.41,0,0,1,.33.16.68.68,0,0,1,.12.44.7.7,0,0,1-.12.44A.4.4,0,0,1,160,14.68Zm0,.37a.86.86,0,0,0,.65-.26,1,1,0,0,0,.24-.7,1,1,0,0,0-.24-.71.94.94,0,0,0-1.3,0,1,1,0,0,0-.24.71,1,1,0,0,0,.24.7A.86.86,0,0,0,160,15.05Z" transform="translate(-104.5 -2.14)"/><path class="cls-3" d="M162.46,15h.45V13.86a.41.41,0,0,1,.08-.27.29.29,0,0,1,.23-.1.27.27,0,0,1,.21.08.37.37,0,0,1,.08.25V15H164V13.86a.41.41,0,0,1,.08-.27.31.31,0,0,1,.24-.1.27.27,0,0,1,.21.1.62.62,0,0,1,.07.31V15H165v-1.2a.66.66,0,0,0-.16-.48.58.58,0,0,0-.45-.18.51.51,0,0,0-.43.2l-.06.1a.42.42,0,0,0-.09-.14.53.53,0,0,0-.38-.16.56.56,0,0,0-.46.22.61.61,0,0,0-.07.14V13.2h-.43Z" transform="translate(-104.5 -2.14)"/></svg>