<?xml version="1.0" encoding="utf-8"?>
<!-- Generator: Adobe Illustrator 24.1.2, SVG Export Plug-In . SVG Version: 6.00 Build 0)  -->
<svg version="1.1" id="Layer_1" xmlns="http://www.w3.org/2000/svg" xmlns:xlink="http://www.w3.org/1999/xlink" x="0px" y="0px"
	 viewBox="0 0 24 24" fill="#999" style="enable-background:new 0 0 24 24;" xml:space="preserve">
<style type="text/css">
	.st0{fill:none;}
</style>
<path class="st0" d="M0,0h24v24H0V0z"/>
<path class="st0" d="M0-1.1h24v24H0V-1.1z"/>
<rect x="-0.5" y="10.4" transform="matrix(0.7071 0.7071 -0.7071 0.7071 11.5378 -5.1879)" width="25.2" height="1.8"/>
<path class="st0" d="M0,0h24v24H0V0z"/>
<path d="M16,11c1.7,0,3-1.3,3-3s-1.3-3-3-3s-3,1.3-3,3S14.3,11,16,11z"/>
<path d="M8,13c-2.3,0-7,1.2-7,3.5V19h14v-2.5C15,14.2,10.3,13,8,13z"/>
<g>
	<path d="M23,18.5v-2c0-1.9-3-3-5.4-3.4L23,18.5z"/>
	<path d="M21,19l-4.6-4.6c0.4,0.6,0.6,1.3,0.6,2.1V19H21z"/>
</g>
<path d="M7.1,5.2C5.9,5.5,5,6.7,5,8c0,1.7,1.3,3,3,3c1.3,0,2.5-0.9,2.8-2.1L7.1,5.2z"/>
</svg>
